<?xml version="1.0" encoding="UTF-8" standalone="no"?>
<!-- Created with Inkscape (http://www.inkscape.org/) -->

<svg
   width="209mm"
   height="257mm"
   viewBox="0 0 209 257"
   version="1.1"
   id="svg1"
   xmlns:inkscape="http://www.inkscape.org/namespaces/inkscape"
   xmlns:sodipodi="http://sodipodi.sourceforge.net/DTD/sodipodi-0.dtd"
   xmlns="http://www.w3.org/2000/svg"
   xmlns:svg="http://www.w3.org/2000/svg">
  <sodipodi:namedview
     id="namedview1"
     pagecolor="#ffffff"
     bordercolor="#999999"
     borderopacity="1"
     inkscape:showpageshadow="2"
     inkscape:pageopacity="0"
     inkscape:pagecheckerboard="0"
     inkscape:deskcolor="#d1d1d1"
     inkscape:document-units="mm" />
  <defs
     id="defs1" />
  <g
     inkscape:label="Capa 1"
     inkscape:groupmode="layer"
     id="layer1">
    <path
       id="rect1"
       style="fill:#ff0000;stroke-width:23.4289;stroke-linecap:round;stroke-linejoin:round;paint-order:markers stroke fill"
       d="m 74.049513,3.1779601 -0.20315,0.07267 -0.2206,0.132285 -0.62165,0.554755 -0.6487,0.209086 0.004,0.0044 -1.180454,0.0896 -0.571955,0.183487 -0.311271,-0.08531 -0.482163,-0.422466 -0.463848,-0.21338 -0.598988,-0.119495 0.08979,0.43956 -0.25198,0.08531 -0.567596,0.08093 -0.928217,-0.298683 -0.234542,-0.290176 -0.419378,0.136589 -0.207508,0.375479 -0.486523,0.260284 -0.892122,0.221886 -0.792556,0.430972 -0.342649,0.09389 -0.261562,-0.102401 -0.527498,-0.460864 -0.31127,-0.196287 -0.31563,-0.119495 -2.577225,-0.01324 -0.680075,0.349964 -1.441774,0.02973 -0.33829,0.157889 -0.666997,0.482169 -0.658279,-0.03881 -0.968672,0.145089 -1.892365,0.157887 -0.752444,0.260284 -0.477803,0.302977 -0.725411,0.328576 -0.536216,0.341375 -0.419377,0.345668 -0.274654,0.563261 -0.251967,0.230391 -0.374042,0.04707 -0.42375,-0.153594 -0.197913,0.0044 -1.293116,0.661445 -0.450756,0.307271 -0.31127,0.285882 -0.342663,0.45236 -0.387121,0.204791 -0.504823,0.4139609 -0.630382,0.298683 -0.27464,0.02973 -0.531857,-0.0644 -0.536217,-0.07267 -0.563236,0.03386 -0.247621,-0.07679 -0.288595,0.02147 -0.07841,-0.153594 -0.149096,-0.3925719 -0.06978,-0.09811 -0.01741,-0.166393 -0.03482,-0.153594 -0.243261,0.311483 -0.374042,0.264577 -0.495241,0.09389 -0.517902,-0.05945 -0.270295,-0.179192 -0.247607,0.119495 -0.513556,0.0044 -0.914618,0.2730839 -0.788182,-0.1578889 -0.549295,-0.260283 -0.707109,-0.648646 -0.387121,-0.507851 -0.220587,-0.452358 v -0.384068 l 0.157815,-0.162183 -0.315629,-0.09389 -0.328708,0.230475 -0.265922,0.11519 -0.333067,0.04294 -0.463848,0.1024 -0.08719,0.362763 -1.04078,3.1066039 -1.063358,2.189127 -0.382761,0.554756 -0.639977,0.465158 -1.103812,0.635846 -1.946501,0.88333 -0.554531,0.409667 -0.220587,0.217673 -0.631246,0.89187 -1.08133,1.156438 -0.0041,0.285884 -0.09939,0.815039 -0.162161,0.512063 -0.860564,1.237513 -0.351369,0.943075 -0.06978,1.169238 0.0041,0.725443 -0.116799,0.422466 0.061,0.238979 0.211868,0.136589 0.319989,0.507851 0.07841,0.311481 -0.112411,0.789441 -0.20315,0.490757 -0.288596,0.482252 -0.419377,0.541956 -0.500464,0.836387 -0.752444,1.011354 -0.490882,0.401158 -1.072337,0.716941 -0.576328,0.597447 -0.342649,0.460857 -0.324348,0.226186 -1.144445,0.571854 -1.270524,0.37126 -0.856205,0.0981 -0.409795,0.200579 -0.238888,0.456567 -0.355741,0.35847 -0.0041,0.0138 -0.207509,0.691348 -0.405435,0.904662 -0.224946,0.862002 -0.211869,0.43096 -0.315629,0.290176 -0.675716,0.477965 -0.571955,0.230477 -0.378402,0.36697 -0.265936,0.136589 -0.148218,0.281663 -0.1395,0.742535 -0.207509,0.362761 -0.274654,0.81083 -0.234543,0.443776 -0.126394,0.57184 -0.03482,1.079639 -0.130781,0.46937 -0.351368,0.52486 -0.396717,0.21759 -1.045317,1.24179 -0.509183,0.36697 -0.3199886,0.32858 -0.1395,0.32006 -0.06978,0.21759 0.180475,-0.17497 0.148233,-0.22618 0.1438586,-0.12376 0.03482,0.14939 -0.04359,0.13231 -0.3600996,0.60166 -0.143859,0.38828 -0.306034,0.60595 -0.257203,0.39258 0.108162,0.20057 -0.08719,0.26459 -0.270282,0.33286 -0.143873,0.73395 -0.40978,0.78945 -0.446411,0.17497 -0.288596,0.34989 -0.360101,0.78093 -0.193553,1.45088 -0.01741,0.12804 -0.234542,1.56609 0.130781,0.15361 -0.04359,-0.27739 0.061,-0.33286 0.095,-0.40116 0.108162,-0.56326 h 0.0041 l -0.108162,0.56326 -0.095,0.40116 -0.061,0.32857 0.04359,0.28168 0.135168,-0.70414 0.06978,-0.11093 0.112411,-0.1152 0.135168,0.0895 0.392357,0.84067 0.274654,0.52056 0.157801,0.0895 0.07841,-0.14938 0.0082,-0.16639 0.135168,0.0595 0.130782,0.11093 0.25198,0.71265 0.328707,0.56325 -0.07841,0.26028 0.01741,0.41819 -0.135168,0.63584 -0.423736,0.93453 0.365324,-0.1152 -0.170893,0.30298 -0.274641,0.0553 -0.103775,0.0853 0.103775,0.23047 0.446411,0.39258 0.243247,0.44807 0.166534,0.84492 0.170893,0.58464 0.103775,0.88334 0.04359,0.99 -0.126394,1.00709 -0.338304,1.03695 -0.369683,0.77664 -0.306033,0.95163 -0.05237,0.430959 -0.14386,0.49077 0.0041,1.28872 -0.0041,0.0215 -0.095,0.30297 -0.721051,1.27593 -0.802152,1.07963 -0.694017,0.37126 -0.328708,0.10665 0.238902,0.30298 0.06978,-0.20909 0.189194,-0.0138 0.230183,0.081 0.243261,0.17499 0.230183,0.46085 0.279,0.23048 0.247621,0.56755 0.216227,0.33288 0.01741,0.25607 0.130782,-0.004 0.193567,-0.0853 0.130781,-0.0138 -0.05237,0.0938 -0.25198,0.13232 -0.08719,0.16218 0.061,0.18777 0.257217,0.20058 0.157814,0.23898 0.06978,0.29448 0.07841,0.37555 0.238901,0.30298 0.234529,0.0297 0.571969,-0.30297 0.748085,-0.0297 0.7384876,-0.11093 0.347023,0.0512 0.02618,0.0429 -0.112411,0.0298 -0.387121,-0.008 -0.490881,0.0981 -0.4777896,0.0429 -0.45513,0.0727 -0.07841,0.16639 0.0041,0.12376 -0.230183,-0.0338 -0.369683,0.0686 -0.378402,-0.0981 -0.108161,-0.1536 -0.04359,-0.22618 -0.143859,-0.11948 -0.211869,0.14509 -0.197912,0.24328 0.148218,0.55475 0.01741,0.24328 0.01741,0.24318 -0.03482,0.27739 0.02618,0.52064 -0.05237,0.094 0.03482,0.11948 0.061,0.12376 0.112411,-0.0512 0.06978,-0.0553 0.095,-0.17919 0.103775,-0.0853 0.130781,0.14939 0.24762,0.11093 0.03482,0.047 -0.01741,0.081 -0.09939,-0.004 -0.170892,-0.0686 -0.328694,0.12803 -0.216242,0.0982 -0.06978,0.14938 0.103775,0.21338 0.08979,0.12376 v 0.004 l 0.721051,0.43526 0.333067,-0.11093 0.176116,0.0174 -0.02618,0.0895 -0.170879,0.17919 -0.01741,0.26458 0.1395,0.20908 0.355727,0.17499 0.473445,-0.11521 0.103775,0.0595 0.04359,0.0553 -0.09939,0.37978 0.319989,0.0686 0.4463966,-0.15789 0.360101,-0.28168 0.207508,-0.0727 0.648683,0.0512 0.203163,-0.12376 0.08719,0.004 0.01741,0.0644 -0.07841,0.094 -0.08719,0.0174 -0.20315,0.10665 -0.540576,-0.008 -0.135168,0.081 -0.08719,0.18779 -0.0041,0.15359 0.234543,0.31578 0.1395,-0.0257 0.112548,-0.12804 0.23017,-0.0512 0.284236,0.0727 0.130781,0.18778 -0.238902,0.0471 -0.234542,0.0215 -0.468208,0.20908 -0.130781,0.25178 0.07841,0.0595 0.130781,-0.0338 0.116799,0.0174 0.01741,0.0512 -0.122008,0.12376 -0.01741,0.19629 0.01741,0.14079 0.197913,0.18778 0.1395,-0.0257 0.126394,0.0174 -0.01741,0.35417 0.108162,-0.008 0.224946,-0.30298 h 0.108162 l -0.103775,0.37127 0.135168,0.20487 -0.02618,0.29868 0.103775,0.0895 h 0.09939 l 0.130782,-0.40116 0.09939,-0.0686 0.130781,0.0174 0.162174,0.0895 0.05237,0.20058 0.17088,0.34568 0.04359,0.14938 0.220587,-0.21759 0.01741,0.0895 -0.06978,0.33286 0.0082,0.192 0.482149,0.86199 0.675717,0.34566 0.2206,0.008 0.108162,-0.0429 0.04359,0.0769 0.01741,0.19207 0.180489,0.2219 0.355727,0.23468 0.17613,0.0512 0.103775,-0.14938 0.061,-0.0138 -0.02618,0.21767 0.112549,0.21337 v 0.38804 l -0.08979,0.29447 0.324348,-0.0215 0.347009,0.35418 0.07841,0.17069 0.02618,0.13231 0.265935,0.27308 0.06978,0.13659 -0.08719,0.26029 0.02618,0.081 h 0.0041 l 0.05237,0.17498 0.311256,0.25607 0.247621,0.0471 -0.02618,0.0727 -0.360087,0.0338 -0.05237,0.21761 -0.0041,0.20058 0.122007,0.33707 0.162174,-0.0297 0.08719,-0.10665 0.355727,0.0338 0.130781,-0.11948 0.02618,0.0769 -0.05237,0.13659 -0.216228,0.15789 -0.238902,0.28587 -0.189194,-0.0512 -0.121185,-0.11948 -0.153455,-0.0138 -0.02618,0.16641 0.184849,0.26886 0.139499,0.34137 0.333067,0.0429 0.170893,0.15788 0.08719,0.25608 0.112548,0.56326 0.07841,0.10665 0.180475,0.081 0.220587,0.21338 0.337427,0.047 0.157814,-0.14939 h 0.07841 l -0.07841,0.24749 0.20315,0.34137 -0.126394,0.29018 -0.0082,0.15789 0.365324,0.12803 1.09937,0.45236 0.517902,0.27309 0.486522,0.40107 0.103775,0.1152 0.571969,0.61875 0.752444,0.37549 0.409795,0.26456 0.16652,0.43527 0.207522,0.14939 0.292955,0.13659 0.468208,0.12376 0.374042,0.25607 1.640111,1.583163 0.734143,0.78516 0.639964,0.52915 2.302406,1.3186 0.684449,0.23468 0.892122,0.40116 0.301674,0.0471 v -0.004 l 0.311257,-0.0686 0.513556,-0.30727 0.459489,-0.16219 0.355727,-0.26029 0.20315,-0.0938 0.783837,-0.25178 1.279585,-0.52915 0.392357,-0.16218 0.919156,-0.21338 1.324659,-0.11093 -0.116798,-0.0895 -0.42375,0.004 -0.265922,0.0215 0.08719,-0.1152 0.1395,-0.047 0.680075,0.0215 0.139514,0.15789 0.189194,0.0257 0.626022,-0.0938 1.644566,-0.1494 -0.06978,-0.0768 -0.1395,-0.0138 -1.302177,0.0644 0.149096,-0.12376 0.513542,-0.0595 0.626022,-0.0174 0.360087,0.047 0.297315,0.20487 1.378727,0.26028 0.095,-0.081 0.193553,-0.49075 0.09939,-0.0553 0.130781,0.0215 -0.04359,0.40537 0.27464,0.12803 0.09939,0.0257 0.01741,0.0512 0.184848,0.0388 0.143859,-0.0854 0.207509,-0.008 0.05237,-0.0853 -0.05237,0.0895 -0.211868,0.008 -0.1395,0.0853 -0.184848,-0.0338 -0.180476,0.004 -0.338303,-0.0512 -0.07841,0.0895 0.347009,0.0727 0.08719,0.0215 0.306033,0.10237 0.639964,0.094 0.851846,0.24318 0.351368,0.15789 0.463849,0.31148 0.234542,0.004 0.59027,-0.32859 0.364446,-0.28166 0.360964,-0.15789 1.148901,-0.40116 0.707109,-0.11948 0.33829,-0.25607 0.482163,-0.21338 0.360087,-0.29868 0.58591,-0.18348 1.018284,-0.529173 1.085867,-0.004 0.20315,0.004 0.527497,-0.14078 0.153442,-0.26888 0.112549,-0.24749 0.143859,-0.16218 0.216227,-0.10237 0.324349,-0.16218 0.824812,-0.19199 0.513542,-0.12376 1.234525,-0.18348 1.10835,-0.11093 0.170893,-0.0174 1.482392,-0.0512 0.25198,-0.35847 0.193553,-0.0174 0.56325,-0.18778 0.08979,0.0429 -0.540576,0.29869 -0.148232,0.0553 -0.103775,0.081 0.09418,0.0553 h 1.685103 l 0.802152,0.18348 0.536216,0.37128 0.594629,0.54195 0.47779,0.64865 0.135168,0.0853 0.03496,0.11093 0.01741,0.24318 0.162161,0.110933 0.270295,-0.110933 0.07841,-0.14937 0.061,-0.0338 v 0.16639 l 0.061,0.0686 h 0.180489 l 0.103775,0.0338 -0.166533,0.10665 -0.279,-0.008 -0.189208,0.0138 -0.04359,0.10665 0.08719,0.14079 0.405421,0.23469 0.432456,-0.20058 -0.05237,0.13231 -0.07841,0.13231 -0.162174,0.0388 -0.189194,0.0769 -0.0082,0.22188 0.01741,0.1792 0.05237,0.0644 0.229306,0.0553 -0.061,0.0769 -0.130781,-0.0429 -0.05237,0.0338 0.170893,0.51636 0.121185,0.30298 0.157814,0.29867 0.08719,0.2432 0.558891,0.54196 0.284236,0.19198 0.170893,0.1408 0.279,0.13659 0.25198,0.0388 0.07841,-0.0429 0.02618,-0.26457 0.148219,-0.12804 0.0082,0.17068 -0.04359,0.10238 0.01741,0.0686 0.095,0.0215 0.428096,-0.0853 0.09939,0.008 0.143859,-0.0257 0.06978,-0.37977 0.05237,0.0595 0.04359,0.2219 0.04359,0.10237 0.216242,-0.008 h 0.112411 l 0.270295,-0.081 -0.180489,-0.27309 v -0.34566 l -0.01741,-0.16639 -0.05237,-0.2048 h 0.05237 l 0.09939,0.22189 0.03482,0.34567 0.07841,0.23047 0.148219,0.14079 0.234542,-0.0174 0.374042,-0.32857 0.02618,-0.28166 -0.207509,-0.20058 -0.02618,-0.0853 0.180476,0.0896 0.162174,0.20487 0.207509,0.18348 0.463848,-0.0174 0.130781,-0.11093 0.01741,-0.14509 0.03482,-0.0257 0.08979,0.26457 0.207523,0.10237 0.41414,0.0138 0.598989,-0.0938 h 0.69839 l 0.08979,-0.27739 -0.247621,-0.70834 0.05237,-0.0471 0.234543,0.28168 0.135168,0.0298 0.09939,0.19198 0.22059,0.0644 0.0784,-0.0938 0.0348,0.008 v -0.004 l 0.0348,0.0138 -0.095,0.40967 0.0174,0.0938 0.0898,0.13231 0.21623,0.0257 0.0872,-0.0938 -0.0784,-0.34138 0.1264,0.0727 0.1395,0.18777 0.12118,0.0174 0.13078,-0.0174 0.0872,0.0215 0.0784,0.0553 -0.0436,0.33288 0.0262,0.21759 0.0524,0.18778 0.1168,0.17069 0.061,0.38836 0.29732,0.14508 0.3601,0.12376 0.12639,0.0727 0.0348,0.0895 0.13517,0.0429 0.16653,0.0138 0.0942,-0.0595 0.10378,-0.16218 -0.0436,-0.1835 0.0784,0.0174 0.0994,0.0895 0.13078,0.004 0.18485,-0.1408 0.0524,0.0595 -0.10377,0.13659 -0.0262,0.11948 0.25198,0.23897 0.008,0.0769 -0.29296,-0.0471 -0.095,0.15359 -0.0994,0.0471 0.15782,0.28587 0.0698,0.23899 0.32435,-0.0338 -0.24763,0.24318 0.53622,0.64015 0.10378,0.20058 0.0898,0.45236 -0.16654,0.45235 -0.0436,0.51206 -0.12118,0.54625 -0.0524,0.65716 0.061,0.0215 v 0.004 l 0.0174,0.0595 0.0174,0.0895 -0.0262,-0.0895 -0.008,-0.0595 -0.0698,-0.0215 -0.0524,0.66574 0.0698,0.39257 -0.23455,0.38837 -0.1892,0.47795 -0.0436,0.14509 -0.12201,0.0727 -0.2389,0.29018 -0.15781,0.38837 -0.1264,0.44376 0.15782,0.0512 0.16653,0.0174 0.2389,0.17068 -0.0262,0.0644 -0.0436,0.11093 0.13078,0.59316 v 0.41817 l -0.0174,0.15358 -0.0436,0.0257 -0.11679,-0.0769 -0.0524,-0.1835 -0.11241,-0.0138 -0.43683,0.14509 -0.0174,0.16639 0.19357,0.18348 0.18919,0.35418 0.20315,0.18349 0.60336,0.29447 0.44117,-0.0768 0.15346,0.0727 -0.49524,0.19199 -0.0436,0.22618 -0.15346,-0.11093 -0.43246,-0.18349 -0.27901,-0.0338 -0.14822,-0.1152 -0.0698,-0.12376 -0.0262,-0.17499 -0.0524,-0.10237 -0.1395,0.1536 0.061,0.48647 0.0348,0.48646 -0.0174,0.11948 h 88.549277 l 1.38326,-1.54475 0.65828,-0.66145 0.82917,-0.69134 0.7882,-0.79794 1.54987,-1.16498 2.38803,-1.39114 0.59028,-0.46086 2.18078,-2.26168 1.66705,-1.91174 1.22555,-1.48076 0.68007,-1.27593 1.09039,-1.52342 1.0543,-1.907796 0.1168,-0.65716 0.37404,-1.04122 0.29732,-0.60166 0.58591,-0.86626 0.27029,-0.48647 0.23454,-0.53337 0.23889,-0.85772 0.66265,-0.66995 0.48215,-0.87481 0.0942,-0.31148 0.28424,-0.63584 0.54493,-0.75105 0.1264,-0.37126 0.36968,-0.52916 0.0174,-0.80653 0.10816,-0.60596 0.0698,-0.93454 0.0784,-0.23898 0.27902,-0.13659 0.45511,-0.12803 0.15782,0.0768 0.30603,0.0512 0.0174,-0.10237 -0.0524,-0.14939 -0.19355,-0.0686 -0.27029,-0.16219 -0.0174,0.0686 v 0.14511 l -0.3287,0.12803 -0.0784,-0.0297 0.0524,-0.0769 0.11242,-0.047 0.0348,-0.13659 0.0698,-0.17069 0.0262,-0.17068 -0.0524,-1.20338 -0.0994,-0.73825 0.13517,-0.48646 0.21623,-0.43526 0.0348,-0.24749 0.061,-0.24749 -0.16653,-0.0297 -1.05428,-0.41396 -0.4098,0.11093 -0.28424,0.34567 -0.16217,0.27308 -0.9372,0.56327 -1.23451,0.21759 -0.66701,0.30297 -0.86055,0.20058 -0.32435,0.0388 -0.095,0.008 -0.60336,-0.20058 -0.26592,0.008 -0.35573,0.0853 -1.10391,0.42676 -0.80651,0.0727 -0.63124,-0.18348 h -0.18049 l -0.45948,0.20908 -0.68009,0.49506 -1.07687,0.50776 -0.27464,0.0338 -0.54058,-0.13658 -0.60858,-0.0429 -0.54494,-0.12376 -0.31997,0.0895 -0.94174,0.43956 -1.04078,0.59744 -1.46435,0.0138 -0.28424,-0.11948 -0.31998,-0.22617 -0.8065,-0.66995 -0.58155,-0.72544 -0.50048,-0.89188 -0.51354,-0.43955 -0.22059,-0.192 -0.31563,-0.0644 -0.34701,0.004 -0.31999,0.0686 -0.36008,0.14939 -0.18485,0.0338 -0.11241,-0.0215 -0.0524,-0.19629 0.31126,0.0388 0.41939,-0.51207 0.65827,-0.25178 0.59027,-0.40116 0.1709,-0.16639 0.11241,-0.18348 0.0784,-0.28168 -0.14387,-0.50777 -0.1491,-0.27737 -0.43681,-0.57185 -0.0436,-0.13659 -0.0942,-0.33707 -0.22059,-0.21759 -0.0784,0.26028 -0.45513,-0.16219 -0.16218,-0.44377 -0.55887,-0.58886 -0.32435,0.0257 -0.1395,-0.53765 -0.26594,-0.54626 -1.54996,-1.1479 -0.46821,-0.75955 -0.79778,-1.09242 -0.9957,-0.36277 -0.43247,-0.40967 -0.23453,-0.14938 -0.2886,-0.0853 -0.34702,-0.0338 -0.26592,-0.11521 -0.31563,-0.40538 -0.0698,-0.18777 -0.0436,-0.34138 -0.16653,-0.17069 -0.30168,-0.22618 -0.13078,0.16219 -0.061,0.27737 0.0698,0.21338 0.008,0.12804 -0.0906,0.22188 -0.1709,-0.25607 -0.23454,-0.69985 -0.1395,-0.20487 -0.18919,-0.0257 -0.22059,-0.74676 -0.32871,-0.39256 -0.19792,-0.79796 -0.21187,-1.5661 -0.28424,-1.045479 -0.32435,-1.00709 -0.79342,-1.70265 v -0.004 l -0.0906,-0.20058 -0.63998,-0.43526 -0.13078,-0.19629 -0.0784,0.0644 -0.13079,0.0429 -0.19355,-0.24749 -0.14386,-0.22617 -0.40107,-0.43528 -0.50483,-0.41395 -0.34702,-0.0686 -0.18048,-0.10665 -0.15781,-0.20058 -0.2886,-0.80653 -0.29731,-1.45941 0.0436,-0.62726 -0.18483,-0.98149 -0.0174,-0.81932 0.10377,-0.48646 -0.14386,-0.52487 -0.0436,-0.49076 -0.0348,-0.26028 0.0174,-0.36697 0.17612,0.081 0.10377,0.1152 0.0174,-0.10237 -0.0174,-0.10665 -0.12118,-0.23469 -0.34265,-0.42246 -0.4098,-0.78944 -0.11776,-0.55047 -0.0262,-0.68704 -0.004,-0.0595 -0.10816,-0.24749 -1.09484,-0.90894 -0.48652,-0.71263 -0.83353,-0.34138 -0.17612,-0.1408 -0.12639,-0.19198 -0.26594,-0.29869 -0.35136,-0.99429 -0.10817,-0.52486 -0.0524,-1.03268 0.0348,-0.19629 0.0698,-0.23468 0.13952,-0.0686 0.0994,-0.0257 0.40107,0.0429 -0.41937,-0.39687 -0.38713,-0.27308 -0.21188,-0.35847 -0.53621,-0.63155 -0.89665,-2.0611 -0.45949,-0.943077 -0.30167,-0.776641 -0.62167,-1.041237 -0.73414,-1.651446 -0.23889,-0.311478 -0.17613,-1.263133 -0.11679,-0.426751 -0.12119,-0.264583 -0.27464,-0.230477 -0.10816,-0.285886 -0.28424,-0.559049 0.0262,-0.298675 -0.0348,-0.623054 -0.13517,-0.243267 -0.32435,-0.243197 -0.44641,-0.507767 -0.47345,-0.751034 -0.32869,-0.392576 -0.10816,-0.209092 -0.0698,-0.234685 -0.1168,-0.264569 -0.33305,-0.456567 -0.0698,-0.204883 0.0174,-0.614459 -0.10377,-0.448067 -0.0898,-0.209078 -0.44118,-0.477966 -0.0994,-0.311478 0.13078,-0.384063 0.21189,-0.328575 -0.0436,-0.243191 0.24326,-0.153594 0.21623,0.571849 0.19793,0.89185 0.1168,0.234685 0.11679,0.162183 0.15782,0.366983 0.54057,0.687043 0.1395,0.30298 0.19793,0.644342 -0.008,0.264583 0.12118,0.413962 0.44119,0.567549 0.47343,0.430973 0.43245,0.665741 0.75245,0.699847 0.45949,0.20487 0.26157,-0.392577 0.21187,-0.401158 0.0784,-0.290176 0.0524,-0.797943 0.45077,-1.280199 0.31127,-1.642906 0.29732,-0.520653 0.14386,-0.145088 0.18485,-0.251779 0.0262,0.230477 -0.0784,0.422461 0.55888,0.106649 0.45949,0.08954 0.67572,0.128035 0.69839,0.13659 0.40979,0.07685 0.10378,-0.02152 -0.10816,0.02566 -0.40544,-0.07685 -0.69839,-0.13659 -0.67572,-0.128035 -0.46384,-0.08954 -0.55888,-0.10665 -0.40108,2.031246 -0.0524,0.678531 -0.25633,0.77664 -0.17612,0.371275 0.0262,0.264569 0.25197,-0.209078 0.27901,0.07271 0.66264,0.07271 0.27028,0.16639 0.63998,0.960139 0.41415,0.955876 0.47779,0.550468 0.23455,0.597447 0.47343,0.597447 0.16217,0.366969 0.41416,0.537665 0.7071,1.540505 0.41502,0.209078 0.0698,0.422474 0.16217,0.473661 0.25198,0.187776 0.16218,0.157891 0.59899,1.092428 0.18483,0.43955 0.0698,0.23899 0.061,0.34988 -0.12118,0.26887 -0.10378,0.16639 0.41503,0.63155 0.24326,0.48647 0.29296,0.51636 0.25197,0.0429 0.19792,0.0138 0.28424,0.26887 0.2572,0.008 0.15346,0.18777 0.31999,0.20489 0.50046,0.45656 0.46385,0.61025 0.20751,0.47366 0.43247,0.77664 0.13078,0.34138 0.10816,0.44376 0.0994,0.1835 0.279,0.32858 h -0.15344 l 0.14908,0.23468 0.18049,0.10665 -0.0174,0.21759 0.16217,0.32428 0.0898,0.60595 -0.0698,0.29869 -0.0942,0.27308 -0.0348,0.51635 -0.0906,0.46087 0.11241,0.32007 0.15782,0.33707 0.14822,0.43957 0.008,0.26028 -0.15345,0.36697 0.48216,1.01563 0.5676,0.71693 0.31998,0.65715 0.30168,0.38407 0.40979,0.29446 0.52226,0.0853 1.0543,0.81933 0.35573,0.51207 0.37404,0.20058 0.0524,0.1152 0.0348,0.20909 0.14909,0.27309 0.1709,0.19628 0.53621,1.21192 0.0698,0.27738 0.12639,0.35416 0.0784,0.31149 0.0262,0.25607 0.53186,0.67424 0.20315,0.58036 0.39236,0.73395 0.24326,0.36276 0.79778,0.64015 0.6356,0.69554 0.10378,0.52486 0.13516,0.39258 0.2389,0.21759 0.18485,0.26458 0.0174,0.26886 0.25197,0.196289 0.13517,0.192 0.0698,0.24326 0.008,0.24749 0.15781,0.34567 0.0262,0.23048 0.008,-0.004 0.10378,0.99428 -0.31998,1.09671 0.21623,0.82785 v 0.13231 l -0.0348,0.17497 -0.13517,-0.081 -0.10377,-0.0981 -0.10378,0.27308 0.51792,0.29448 0.11241,0.36697 0.10377,0.19629 v 0.11948 l -0.061,0.10237 0.0174,0.13232 0.0698,0.12803 0.19355,0.63155 v 0.0981 l -0.0348,0.11093 0.10378,0.40967 0.12639,0.40116 -0.008,0.55476 0.3784,0.44376 0.13078,0.48217 v 0.14938 l -0.13517,1.07536 0.63996,1.23752 0.0348,0.40116 0.38713,-0.12803 0.52749,0.20478 0.24762,0.16641 0.20315,0.0257 0.27902,-0.0854 0.39234,-0.0174 0.25634,-0.0686 0.68531,-0.42247 0.36009,0.1536 0.35574,-0.0553 0.39234,-0.0895 0.18485,-0.35418 0.14386,-0.17068 0.60335,-0.192 0.37404,-0.47795 0.32435,-0.30298 0.68967,-0.1536 0.74809,-0.081 0.78819,0.0257 0.42374,-0.0471 0.32871,-0.094 0.49522,-0.23046 0.70275,-0.17499 0.43246,-0.14938 0.59463,-0.56325 0.58592,-0.28589 0.16216,-0.15789 0.19357,-0.10237 0.7568,0.14939 0.45077,-0.0215 0.38276,-0.11521 0.19792,-0.008 0.29297,-0.21337 0.39234,-0.41396 0.19793,-0.25178 0.11241,-0.29017 0.14823,-0.12804 0.64868,-0.39257 0.52226,-0.2432 0.94174,-0.30297 0.68531,-0.0644 0.45513,-0.21767 0.49523,-0.32008 1.28413,-0.29017 0.81086,-0.24748 0.73849,-0.31578 0.20752,-0.12376 0.17612,-0.17497 0.21623,-0.0512 0.35574,-0.22618 0.31997,-0.1408 0.34266,-0.20058 0.0174,-0.30727 -0.12639,-0.57606 0.16653,-0.62725 0.23891,-0.35418 0.31563,-0.28588 0.35136,-0.22618 1.32912,-0.51636 0.56325,-0.22188 0.82481,-0.10237 0.43246,-0.27738 0.47344,-0.179189 0.29731,-0.25607 0.81522,-0.081 0.50046,0.0138 0.25722,0.0644 0.28424,0.13231 0.77074,-0.21338 0.28861,-0.34567 0.26592,-0.47796 0.0524,-0.1792 -0.0348,-0.19198 -0.1168,-0.1707 0.0524,-0.23897 0.59028,-0.75534 0.35137,-0.12376 1.01375,-0.13659 0.7167,-0.047 0.29732,-0.10665 0.44117,-0.52066 0.27466,-1.24604 0.45077,-0.49076 0.34701,-0.21768 0.57631,-0.21767 0.66265,-0.11948 0.65304,-0.0388 0.16654,-0.0595 0.18919,-0.1152 -0.0524,-0.38406 -0.0698,-0.31579 -0.004,-0.53336 -0.12118,-0.52065 v -0.2132 l 0.0698,-0.37557 0.16217,-0.44807 0.10816,-0.48646 0.0524,-0.37555 0.22495,-0.29448 0.40543,-0.67853 0.17613,-0.0553 0.20315,-0.0298 -0.0348,0.27308 -0.061,0.25178 0.14909,0.0853 0.2206,0.0257 0.3287,-0.0595 0.15781,-0.29017 0.41416,-0.90467 0.53621,-0.91747 0.45513,-0.52486 0.62165,-0.43956 0.18049,-0.19199 0.38276,-0.85346 0.35573,-0.50777 0.0698,-0.31148 0.31562,-0.49927 0.061,-0.25607 0.0348,-0.34989 -0.0436,-0.27308 -0.33829,-0.11093 -0.41938,-0.10237 -0.27902,-0.25176 -0.31127,-0.40538 -0.30603,-0.54625 -0.43681,-0.48647 -0.12119,-0.31578 -0.18919,-0.30727 -0.21623,-0.19198 -0.1491,-0.36699 -0.51354,-0.38827 -0.20751,-0.008 -0.27901,0.081 -0.18484,-0.0174 -0.53621,-0.28589 -0.77512,-0.13659 -0.56761,-0.14079 -1.02734,-0.37128 -0.25634,-0.17919 -0.55452,-0.52486 -0.36532,-0.56755 -0.35139,-0.41817 -0.40106,-0.76385 -0.26593,-0.81504 h -0.004 l -0.0348,-0.11948 -0.0262,-1.711188 -0.17089,-0.251779 -0.0436,0.06857 h -0.008 l 0.0524,-0.06857 0.0174,-0.183485 0.061,-0.132312 0.1168,-0.162183 0.11241,-0.951612 0.004,-0.311479 0.0348,-0.371274 -0.0436,-0.07685 -0.0898,-0.0138 -0.0872,0.132313 -0.10816,0.243184 -0.20315,0.04705 -0.0784,-0.0298 -0.0872,0.06857 -0.22059,0.452359 -0.0174,0.0298 -0.13078,0.426751 -0.22059,0.379773 -1.10391,0.917482 -0.23454,0.32007 -0.29296,0.29018 -0.0524,0.19629 -0.54058,0.60165 -0.92813,0.71265 -0.23017,0.29018 -0.095,0.29447 -0.11242,0.17498 -0.12118,0.10237 -0.095,0.2091 -0.10378,0.32007 -0.16217,0.24748 -0.24762,0.0727 -0.4098,0.25177 -0.67135,0.28589 -0.24325,0.0215 -1.23905,-0.0938 -0.80215,-0.15358 -0.99579,-0.0257 -0.36009,0.12376 -0.68531,0.35847 -0.34701,0.0727 -0.56325,-0.047 -0.16653,-0.0768 -0.13517,-0.19629 -0.061,-0.55476 -0.0872,-0.0257 -0.18485,0.0338 -0.10816,-0.15789 -0.0524,-0.11093 -0.0942,0.15789 v 0.0895 l 0.008,0.39687 0.0524,0.15359 0.0994,0.13231 0.14386,0.20487 0.14388,0.20058 0.14386,0.20058 0.14386,0.20487 0.14385,0.20059 0.14388,0.20487 0.14822,0.19629 0.14386,0.20479 0.14385,0.20058 0.14388,0.20058 0.14386,0.20058 0.14386,0.20057 0.14386,0.2006 0.14387,0.20487 0.14908,0.19629 0.13951,0.20057 0.12119,0.1664 0.21623,0.0338 -0.22059,-0.0297 -0.12118,-0.16639 -0.14388,-0.20058 -0.14386,-0.20057 -0.14386,-0.20058 -0.14386,-0.20058 -0.14387,-0.20058 -0.14386,-0.20489 -0.14386,-0.19628 -0.14386,-0.20058 -0.14909,-0.20487 -0.14386,-0.20058 -0.14387,-0.20058 -0.14386,-0.20489 -0.14386,-0.20057 -0.14386,-0.20058 -0.14388,-0.20058 -0.14385,-0.20487 -0.0994,-0.13231 -0.0524,-0.15359 -0.008,-0.40116 v -0.0895 h -0.0908 l -0.15345,-0.0686 -0.21623,-0.0338 -0.22495,-0.0686 0.15782,-0.41817 0.13078,-0.1664 -0.0174,-0.12375 -0.19357,0.0215 -0.18047,-0.13659 -0.2389,0.0644 -0.22059,0.0686 -0.18921,-0.004 -0.14908,-0.0257 -0.0994,-0.0686 v -0.004 l -0.19357,-0.25607 v -0.008 l 0.19357,0.26459 0.0994,0.0644 0.14908,0.0257 0.18485,0.004 0.22495,-0.0644 0.23454,-0.0644 0.33829,-0.11521 0.0784,-0.0686 0.27902,-0.68704 0.14385,-0.23038 0.061,-0.2731 -0.0262,-0.29446 -0.10377,-0.42247 -0.10816,-0.32857 -0.0262,-0.19629 -0.0698,-0.226185 0.10816,-0.486464 0.12118,-0.30727 -0.0784,-0.379774 -0.40544,-0.341376 -0.33829,-0.448054 -0.40543,0.226173 -0.27464,0.30727 -0.26158,0.802234 -0.095,0.345681 -0.17089,0.358457 -0.10816,0.162188 -0.0174,0.14508 0.061,0.68705 0.18049,0.89613 -0.0262,0.11521 -0.0784,0.19199 -0.20751,-0.24318 -0.15345,-0.29448 -0.2886,-0.38406 -0.13078,-0.68276 -0.1395,-0.36697 -0.45949,-0.439553 -0.10816,-0.179194 -0.13078,-0.41817 -0.1578,-0.281677 -0.13078,-0.358471 -0.13078,-0.46937 0.061,-0.0338 0.11255,0.0083 0.10377,0.05946 h 0.0524 l 0.15781,-0.648647 -0.0784,-0.30727 -0.19791,-0.157892 -0.21623,-0.221881 -0.0436,-0.260278 -0.004,-0.217591 0.0436,-0.06443 0.15781,0.07271 0.1264,0.05119 0.0436,-0.0083 -0.42811,-0.524861 -0.71147,-0.401158 -0.47343,-0.62304 -0.34701,-0.09382 -0.32434,-0.409671 -0.28424,-0.40538 0.16653,-0.174972 -0.21188,-0.110927 -0.18483,-0.06857 -0.47781,-0.25607 -0.28859,-0.30298 0.0262,-0.128035 0.0698,-0.115204 -0.061,-0.302966 -0.0898,-0.200579 -0.39234,-0.554759 -0.2703,-0.712651 -0.061,-0.298675 -0.14822,-0.298688 -0.13517,-0.285886 -0.0524,-0.191983 -0.0872,-0.230477 -0.23019,-0.443777 -0.18048,-0.251766 -0.22059,-0.742548 -0.0348,-0.209078 -0.095,-0.260292 -0.1395,-0.0981 -0.16654,0.05946 h -0.23421 l -0.32435,-0.08954 0.004,-0.07685 0.24327,-0.221881 0.40106,-0.41817 0.20752,0.06443 0.10816,0.05947 0.1395,0.02152 -0.0174,-0.149393 -0.15781,-0.315769 -0.1892,-0.388359 -0.0872,-0.358468 0.0174,-0.119495 0.0174,-0.0896 0.23454,-0.1024 0.18483,0.0083 0.55889,0.273084 0.26157,0.0644 0.24326,-0.07679 -0.17613,-0.136589 -0.1168,-0.110983 -0.0942,-0.234685 -0.0348,-0.162182 0.0436,-0.09389 -0.0524,-0.136589 -0.1395,-0.179194 -0.13517,-0.09818 -0.1395,-0.02147 -0.1168,-0.110983 -0.0898,-0.20058 -0.21624,-0.132285 -0.13517,-0.02973 v -0.61875 l -0.004,-0.55046 v -0.54194 l -0.45949,-0.02561 -0.41416,-0.02147 V 24.3728 23.523607 l 0.19793,-0.661445 0.19793,-0.635847 -0.30169,-0.473664 -0.32433,-0.503557 -0.21187,-0.209085 -0.24762,-0.627259 -0.12119,-0.281672 -0.10816,-0.106691 -0.1168,-0.05945 -0.43245,0.02147 -0.40108,-0.341375 -0.47344,-0.401161 -0.58156,-0.490756 -0.50482,-0.320072 -0.20663,-0.07267 -0.49088,-0.02973 -0.0524,-0.05945 -0.0348,-0.174982 0.004,-0.196285 0.15782,-0.294471 0.0174,-0.183488 -0.33307,-0.627257 -0.10377,-0.183488 -0.28424,-0.07679 0.061,-0.179193 v -0.12377 l -0.0436,-0.09389 -0.0698,-0.04708 -0.0784,-0.0044 -0.22495,0.07267 -0.17089,-0.281672 -0.5275,-0.81504 -0.16653,-0.0981 -0.0348,-0.05532 0.12639,-0.247485 0.2206,-0.36268 0.0348,-0.217673 -0.0436,-0.234685 -0.23454,-0.443771 0.061,-0.187782 0.0994,-0.217673 0.0174,-0.162182 0.1578,0.02559 0.19793,0.0044 0.0698,-0.132285 -0.004,-0.465159 0.0524,-0.170687 0.6356,-0.785146 0.31999,-0.174982 0.24326,-0.162181 0.0524,-0.23898 -0.0524,-0.123786 -0.0436,-0.174981 -0.0174,-0.132285 -0.26594,-0.3541739 -0.095,-0.183488 -0.008,-0.162182 0.061,-0.290176 0.10816,-0.221886 0.3784,-0.132284 0.21623,-0.110983 0.0348,-0.1024 -0.27901,-0.166393 -0.59899,-0.05533 -0.43246,0.04708 -0.13949,-0.0512 -0.20751,-0.320071 -0.2206,-0.170687 -0.20315,-0.110982 -0.20315,0.02147 -0.12119,-0.04708 -0.0262,-0.136589 -0.2886,-1.049757 -0.0906,-0.14509 -0.13517,-0.03386 -0.11255,-0.0083 -0.0784,-0.07267 -0.0784,-0.14509 -0.061,-0.191992 v -0.253863 l 0.008,-0.213381 -0.0348,-0.140794 -0.0994,-0.136589 -0.1395,-0.09818 -0.1264,-0.119495 -0.21624,-0.930267 -0.0906,-0.251778 v -0.02559 l -0.0898,-0.08093 -0.16217,-0.02973 -0.16653,-0.0083 -0.10817,0.05945 -0.18048,0.166393 -0.24762,0.183488 -0.20315,0.166393 -0.1168,0.11519 -0.0906,-0.02147 -0.0784,-0.09818 -0.0436,-0.140795 0.0174,-0.533367 -0.0436,-0.166393 -0.0942,-0.11519 -0.10816,-0.06854 -0.13078,-0.03881 -0.1395,-0.0044 -0.18921,0.153594 -0.27464,0.162181 -0.42373,-0.01734 -0.28424,-0.03386 -0.13517,-0.02973 -0.55452,-0.251778 -0.11241,-0.0044 -0.20751,-0.102401 -0.0524,-0.01734 h -0.36969 l -0.23454,0.08531 -0.18048,-0.03881 -0.0872,-0.04707 h -0.26594 l -0.24762,0.349881 -0.47343,0.422466 -0.25198,0.06854 -0.12639,-0.42676 -0.1168,-0.166393 -0.0524,-0.02147 -0.1168,-0.0512 -0.0898,0.02559 -0.2886,0.294471 -0.45512,0.170687 -0.37841,0.106691 -0.59898,0.127994 -0.46385,0.05945 -0.19792,0.0044 -0.42811,-0.05945 -0.3784,-0.08531 h -0.37404 l -0.29295,0.03881 -0.67136,0.307271 -1.14445,0.635846 -0.86928,0.302977 -0.48651,0.123785 -0.3784,0.07267 h -0.65306 l -0.53621,-0.0512 -0.36533,0.0044 -0.2075,-0.08093 -0.29296,-0.260284 -0.35137,-0.260285 -0.15781,-0.05945 -0.20315,-0.0512 -0.30604,-0.02973 -0.74808,0.375479 -0.23454,0.09818 -0.25722,0.07679 -0.5179,0.226181 -0.22931,0.119495 -0.28859,-0.01325 -0.36969,-0.03386 -0.31998,0.0083 -0.21187,-0.174982 -0.1168,-0.196285 -0.43246,-0.123786 -0.31127,-0.03386 -0.0784,0.08531 -0.0784,0.268872 -0.13517,0.678539 -0.0174,0.174981 0.27028,0.678539 -0.008,0.1024 -0.19791,0.02973 -0.22495,0.01324 -0.14387,0.05945 -0.12118,0.110983 -0.0698,0.584648 -0.26158,0.106691 -0.12639,0.119495 -0.1264,0.358468 -0.0698,0.0083 -0.42375,-0.277376 -0.19356,-0.02147 -0.14386,0.234685 -0.19792,0.960144 0.36532,0.520568 0.0348,0.2432729 0.004,0.174982 0.061,0.260284 -0.1395,0.559048 -0.004,0.384068 0.0348,0.33287 0.20315,0.763841 v 0.277378 l -0.14822,0.183486 -0.30604,0.191993 -0.41415,0.64014 -0.095,0.733947 -0.26592,0.516357 -0.45949,1.26739 -0.22495,0.371269 -0.12201,0.448065 -0.13078,0.332869 -0.12201,0.256073 -0.0784,0.388362 -0.18919,0.469368 -0.2206,0.708351 -0.3104,1.39114 -0.32869,0.990012 -0.51356,1.002819 -0.0174,0.02561 -0.23453,0.33287 -0.50047,0.524861 -0.061,0.05945 -0.72105,0.401161 -0.62166,0.162182 -0.76116,-0.0044 -0.48217,0.149382 -0.0994,-0.13659 -0.0698,-0.140794 -0.599,0.187781 -0.1264,-0.02559 -0.44641,0.140794 -0.21623,0.01734 -0.18483,-0.106691 -0.5493,-0.512062 -0.19356,-0.127994 -0.0898,0.0044 0.0698,0.153594 0.10378,0.149383 -0.19793,0.268872 -0.27464,0.08531 -0.095,-0.196287 -0.15344,-0.22618 -0.27902,-0.0644 -0.34701,-0.174981 0.279,-0.396867 0.0436,-0.22618 0.48216,0.45657 0.15782,0.01324 -0.45513,-0.53345 -0.19793,-0.127994 -0.13078,0.04706 -0.61295,0.230474 -0.21622,-0.0083 -0.86929,-0.430972 -0.29295,-0.05533 -0.0784,0.03881 -0.0524,0.277377 -0.0784,0.149383 -0.42373,0.07267 -0.37405,0.11519 -0.3601,-0.04708 0.84661,-0.341375 0.10378,-0.145089 -0.92814,0.302976 -0.46384,0.04707 -0.13517,0.183488 -0.0872,0.149382 -0.13078,0.127993 -0.10378,0.191994 -0.25198,0.01324 -0.20751,-0.03386 -0.31562,0.119495 -0.88759,0.704136 -0.4281,0.273085 -0.39671,0.20058 -0.31563,0.102401 -0.23017,0.01324 -0.26158,-0.0896 -0.43681,-0.285883 -0.77076,-0.354174 -1.44176,-0.162182 -0.36096,-0.324282 -0.55453,0.0083 -0.21187,-0.06854 -0.76553,-0.546249 -1.26606,-0.311483 -0.81959,-0.140794 -1.48684,-0.366974 -1.34271,0.345669 -0.41415,-0.06854 -0.19793,-0.401161 -0.0942,-0.187781 -0.23453,-0.571848 -0.19793,-0.230392 -0.18919,-0.1024 -0.5092,-0.106692 -0.54057,0.05945 -0.92368,-0.04707 -0.2389,-0.09389 -0.36969,-0.298683 -0.26592,-0.106691 -1.34725,-0.192075 -0.47344,-0.392572 0.008,-0.221886 0.0524,-0.166393 -0.0994,-0.567556 -0.45949,-0.234685 -0.42809,-0.179192 -0.60859,-0.179193 -0.48216,-0.290177 -0.40542,-0.132285 -0.91462,0.02973 -0.31127,-0.11519 -0.22583,0.01734 -0.55887,0.456571 -0.27902,0.07267 -0.67135,0.0044 -1.16703,0.644352 -0.65741,0.495051 -0.65304,0.699843 -0.2389,0.366974 -0.15346,0.358469 -0.12119,0.601659 0.0872,0.866262 0.1578,0.477957 0.2206,0.36268 0.0994,0.34567 0.0262,0.384067 -0.10378,0.37548 -0.26158,0.533449 -0.78819,1.015621 -0.32434,0.238978 -0.78819,0.405374 -0.44118,0.06854 -0.490879,-0.08093 -0.702729,-0.409667 -1.266069,-1.190576 -0.63563,-0.243191 -0.31125,-0.251778 -1.26608,-0.512063 -1.49583,-0.443771 -0.87407,-0.04707 -0.86492,-0.123786 -0.76117,-0.324282 -0.33306,-0.21759 -0.29296,-0.34567 -0.26156,-0.413961 -0.21623,-0.588859 -0.13517,-0.452359 -0.004,-0.627259 -0.24325,-0.503555 -0.2389,-0.268873 -1.74815,-0.405373 -0.23454,-0.132285 -0.49523,-0.439559 -0.21188,-0.09811 -0.84661,-0.277377 -0.49087,-0.02559 -0.29295,-0.0896 -0.667,-0.302977 -0.38276,0.05532 -1.01376,0.315777 -0.86055,-0.09818 -0.38712,-0.09811 -1.22999,-0.793733 -0.40979,-0.0896 -0.40106,-0.21338 -0.28424,-0.153594 -0.16218,0.0512 -0.27465,-0.08093 -0.0784,-0.05533 0.0784,-0.07267 0.0994,-0.0512 -0.0348,-0.07267 -0.27901,-0.204874 -0.17612,-0.652858 -0.33307,-0.217591 -0.15781,0.311482 -0.18484,0.0512 -0.27465,0.01324 -0.0524,-0.32007 0.0174,-0.268872 -0.68007,0.08531 -0.39235,-0.226179 -0.38712,-0.409667 -0.28861,-0.704138 -0.0262,-0.281672 0.0698,-0.243189 0.1395,-0.230392 0.21622,-0.226179 0.88315,-0.669951 0.40978,-0.45657 0.45949,-0.699843 0.2389,-0.512063 0.42811,-0.708349 -0.19793,-0.3285759 -0.0348,-0.409666 -0.0784,-0.337082 0.008,-0.281671 -0.58155,-0.48217 -0.25198,-0.09818 -0.25722,-0.302977 -0.22494,-0.507768 -0.0784,-0.494969 0.0348,-0.277378 0.0994,-0.238979 0.30604,-0.332869 0.40979,-0.256073 0.4464,-0.870531 0.23192,-0.346742 0.18485,-0.11519 -0.13078,-0.324282 -0.061,-0.37548 -0.2703,0.04707 -0.48651,0.452359 -0.51355,0.174981 -0.1395,0.307271 -0.28424,0.209086 -0.31127,-0.174982 0.10816,-0.294471 -0.38276,-0.597448 0.0174,-0.605952 -0.0784,-0.04294 h -0.75681 v 0.01325 l 0.0436,0.110982 -0.17613,0.162181 -0.12201,-0.268872 0.008,-0.01734 z m -38.378954,3.490655 0.01741,0.04294 -0.02618,0.01734 -0.0041,0.0644 0.03482,0.04706 0.01741,0.0044 0.0082,-0.09389 -0.0041,-0.03386 0.0041,-0.04708 z m 43.749724,4.8647249 -0.26592,0.260284 -0.0784,0.209086 0.40543,-0.243272 0.004,-0.162182 z m -0.87861,3.149272 -0.46384,0.01325 -0.0348,0.110982 -0.0262,0.396866 0.0898,0.07267 h 0.0698 l 0.19357,0.102401 0.0698,-0.0083 0.12639,-0.0896 0.0698,-0.01734 0.0898,-0.08093 0.1168,-0.127994 -0.008,-0.06854 -0.0436,-0.0644 z m 63.948457,4.903141 0.29295,0.07267 0.15344,0.02147 0.0698,0.04707 0.0436,0.140794 0.21622,0.166393 0.17612,0.02147 v 0.0044 l 0.0524,0.520651 -0.004,0.0044 -0.0524,-0.524862 -0.18048,-0.02147 -0.21187,-0.166393 v -0.0044 l -0.0436,-0.136589 -0.061,-0.04708 -0.15345,-0.02147 -0.29297,-0.07267 -0.33829,0.243272 z m 11.00276,1.53196 0.88315,0.166393 0.85184,0.162182 0.9011,0.191992 -0.89666,-0.187781 -0.85619,-0.162181 z m -10.11064,0.302977 0.0784,0.725441 -0.10377,0.196287 0.0994,-0.196287 z m -65.741677,0.0644 -0.0898,0.187782 -0.18047,0.217674 0.17611,-0.217674 z m 78.492687,0.153594 0.28424,0.149383 0.86927,0.55905 0.56325,0.366974 -0.56325,-0.362763 -0.86927,-0.559048 z m -13.61157,0.550462 v 0.0044 l -0.13517,0.0512 -0.31127,0.20058 v -0.0044 l 0.31127,-0.20058 z m -65.890417,0.196286 -0.0898,0.127994 -0.12201,0.268873 0.15345,0.704137 0.18484,0.716936 0.0348,0.298684 v 0.251778 l -0.10378,0.264578 -0.2389,0.384067 -0.17525,0.277378 -0.33307,0.503557 -0.0994,0.119495 h -0.004 l 0.0994,-0.119495 0.33307,-0.503557 0.17611,-0.281672 0.23891,-0.379773 0.10377,-0.264578 0.004,-0.251778 -0.0436,-0.298684 -0.18485,-0.716936 -0.15345,-0.704137 0.12118,-0.268873 z m 81.876407,0.751042 0.82481,0.524863 0.56761,0.366973 0.72105,0.460865 0.56325,0.529156 -0.56325,-0.524863 -0.72105,-0.465158 -0.56761,-0.362762 z m 2.6809,1.881882 0.71147,0.665738 0.78384,0.729737 0.64868,0.567555 0.88759,0.780934 -0.89213,-0.77664 -0.64432,-0.567554 -0.78384,-0.729737 z m -86.026097,1.62585 -0.31127,0.170688 v -0.0044 z m 99.795317,1.130831 h 0.33829 l 0.0784,0.0083 0.21188,0.05945 0.004,0.0044 -0.21623,-0.0644 -0.0784,-0.0044 h -0.33829 l -0.48652,0.0512 z m -27.18252,0.349964 -0.7167,0.153593 -0.36444,0.08093 0.36444,-0.08531 z m 28.94871,0.04293 -0.0698,0.05945 -0.0524,0.204874 -0.0524,0.03386 -0.0174,0.0512 v 0.06854 l -0.0872,0.162182 0.16217,0.435265 0.0942,0.174972 0.0994,0.0298 0.15345,-0.06857 0.1709,-0.230463 0.0174,-0.08099 0.004,-0.20487 -0.31999,-0.499261 z m -2.82503,0.04707 -0.0262,0.06854 -0.15344,0.375563 -0.18049,0.486457 -0.18484,0.435278 0.18048,-0.435278 0.18049,-0.486457 0.15344,-0.379773 z m -1.10389,2.25741 -0.42375,0.520653 h -0.004 v 0.0041 l -0.46385,0.102373 -1.07234,-0.110927 -1.18499,-0.119481 -1.185,-0.119481 -0.87851,-0.08954 -0.0698,-0.02966 0.0698,0.02552 0.88305,0.08954 1.18046,0.119481 1.18499,0.123758 1.07234,0.10665 0.46385,-0.102373 z m 2.27983,1.79227 0.061,0.247475 h -0.004 z m -148.181347,3.729616 0.0041,0.0041 v 0.520653 0.627248 l 0.0041,0.623053 v 0.708346 0.704138 0.512072 0.358457 l -0.536216,-0.0041 -0.490868,-0.0041 h -0.490882 l -0.490868,-0.0041 -0.490882,-0.0041 h -0.490881 l -0.490868,-0.0041 h -0.490882 l -0.490868,-0.0041 -0.490882,-0.0041 h -0.486522 l -0.490868,-0.0041 -0.496105,-0.0041 h -0.490882 l -0.490881,-0.0041 h -0.486509 l -0.490882,-0.0041 h -0.396716 v 0.371274 0.422461 0.426765 0.422461 0.422474 0.422459 0.42246 0.42248 0.41817 0.42246 0.41818 0.42246 0.41817 0.41817 0.41817 0.41819 0.41817 0.37126 l -0.01741,0.33708 -0.157801,0.0938 -0.374043,0.1792 -0.38712,0.17919 -0.490882,0.081 -0.162174,0.0553 -0.31127,0.23898 -0.414141,0.31577 -0.355741,0.26887 -0.234542,0.35418 -0.08719,0.192 -0.03482,0.20487 0.02618,0.19629 0.126394,0.38835 0.03482,0.20058 0.01741,0.34138 0.01741,0.37127 0.02618,0.40116 0.02618,0.40107 0.02618,0.42677 0.02618,0.42675 0.02618,0.42677 0.01741,0.32007 0.01741,0.39687 h -0.0082 -0.387121 l -0.604225,-0.004 h 0.59027 l 0.401076,0.004 -0.02618,-0.40116 -0.01741,-0.32007 -0.02618,-0.42677 -0.02618,-0.42675 -0.02618,-0.42248 -0.01741,-0.40536 -0.02618,-0.40116 -0.02618,-0.37127 -0.01741,-0.34138 -0.03482,-0.20058 -0.130781,-0.38837 -0.02618,-0.19627 0.03482,-0.20489 0.08719,-0.19198 0.238902,-0.35418 0.355741,-0.26887 0.409781,-0.31577 0.31563,-0.23469 0.162174,-0.0595 0.490868,-0.081 0.387134,-0.17919 0.374042,-0.17499 0.157801,-0.0981 0.01741,-0.33287 v -0.37019 -0.41818 -0.41817 -0.41817 -0.42246 -0.41817 -0.41818 -0.42247 -0.41817 -0.42247 -0.42246 -0.42246 -0.422477 -0.422461 -0.422475 -0.426751 -0.422474 -0.371261 h 0.396717 l 0.490882,0.0041 H 19.4754 l 0.490882,0.0041 h 0.490882 l 0.495227,0.0041 0.486523,0.0041 h 0.490868 l 0.490881,0.0041 0.490882,0.0041 h 0.490868 l 0.490882,0.0041 h 0.490868 l 0.490882,0.0041 0.490881,0.0041 h 0.490868 l 0.490882,0.0041 0.536216,0.0041 v -0.359547 -0.512058 -0.704137 -0.708346 l -0.0041,-0.623054 v -0.62304 z m 156.093257,4.096613 -0.24326,0.05532 -0.0524,0.115204 0.0994,0.418184 -0.061,0.285871 0.20751,0.413962 0.0784,0.08526 0.0872,-0.238976 0.0262,-0.371274 -0.0174,-0.384064 -0.13951,-0.230394 0.0784,-0.132313 z m -36.8336,1.024156 -0.0942,0.136589 -0.004,0.243267 0.11255,0.110927 0.0174,-0.04705 0.004,-0.06857 -0.0436,-0.187789 z m -0.13078,0.520653 -0.0784,0.13659 0.0698,0.132312 0.50918,0.213382 0.10816,0.10665 0.10817,0.157892 0.18484,0.209093 h 0.0698 l 0.1395,-0.0982 -0.0784,-0.0338 -0.46385,-0.418169 -0.41938,-0.191984 -0.0942,-0.08099 z m 52.21581,2.500649 h 0.004 l -0.0994,0.12803 -0.1264,0.20058 0.12119,-0.20058 z m -0.91018,0.29017 v 0.004 l -0.0698,0.0138 0.004,-0.004 z m -0.55451,0.0257 -0.008,0.26887 0.0348,0.29869 v 0.14938 l -0.004,0.004 v -0.14938 l -0.0348,-0.30298 0.008,-0.26457 z m -3.68105,1.10096 -0.0524,0.004 -0.1168,0.10237 0.061,0.0895 0.18485,0.0553 0.0784,0.004 0.0174,-0.0595 -0.0994,-0.0853 z m -2.59982,0.27737 -0.10816,0.14511 -0.0994,0.0686 -0.37404,0.1536 0.17611,0.11948 0.19357,-0.0174 0.13517,-0.0686 0.0698,-0.081 0.095,-0.19629 z m -2.06351,0.0981 -0.11775,0.0727 -0.004,0.0553 0.0524,0.16219 0.0436,-0.0215 0.10816,-0.13231 z m 3.17196,0.37977 -0.37841,0.14509 -0.14387,0.12376 0.21624,0.0768 0.21623,0.0298 0.0698,-0.0512 0.27028,0.0297 v -0.10238 l -0.095,-0.1152 z m 5.08235,0.0768 0.10378,0.0595 0.3383,0.0257 v 0.004 l -0.3383,-0.0257 z m -0.77076,0.92174 0.061,0.0982 -0.061,-0.0938 z m 0.061,0.10238 0.0698,0.0727 0.0348,0.20057 -0.061,0.29018 -0.10816,0.28166 -0.13952,0.34989 -0.1578,0.39687 0.15344,-0.39687 0.13952,-0.34989 0.11241,-0.28166 0.061,-0.28588 -0.0348,-0.20487 z m -113.298777,0.95161 1.30218,0.34138 1.31115,0.34987 -1.31115,-0.34567 z m 6.56022,1.27164 -1.11288,0.64865 -0.85621,0.49076 0.85621,-0.49497 z m -10.66031,0.21339 -1.36521,0.92599 -1.36521,0.91748 1.36521,-0.92174 z m 109.860907,0.54195 0.0698,0.008 0.19792,0.0298 0.30604,0.047 -0.31127,-0.0429 -0.19792,-0.0297 z m 3.73074,0.54625 0.56325,0.081 0.5275,0.081 -0.5275,-0.0768 z m 3.00526,0.1536 0.19355,0.34138 0.15781,0.29017 0.22059,0.39256 0.23454,0.41817 0.22495,0.39687 0.16653,0.29869 -0.0698,0.22619 0.061,-0.2219 -0.16653,-0.29867 -0.22583,-0.39687 -0.23453,-0.41817 -0.2206,-0.39258 -0.1578,-0.28588 -0.19356,-0.34567 z m -1.91041,0.008 0.47779,0.0686 0.39672,0.0595 -0.40108,-0.0553 z m 0.87861,0.12803 0.31125,0.0429 0.20317,0.0297 0.061,0.0138 -0.0698,-0.008 -0.20315,-0.0297 z m 0.82917,0.10665 -0.004,0.004 -0.035,0.004 z m -95.902499,1.0839 1.266069,0.71694 1.26163,0.72544 -1.26163,-0.72115 z m 97.186619,1.21192 -0.0698,0.23897 -0.0994,0.33287 -0.095,0.33717 -0.0994,0.33286 -0.095,0.33288 -0.0698,0.24318 0.0698,-0.23898 0.0942,-0.33286 0.0994,-0.33288 0.095,-0.33707 0.0994,-0.33288 z m -182.987422,0.64465 h 0.594629 l 0.603348,0.004 h -0.59027 z m 182.406222,1.35701 -0.0698,0.23897 -0.0698,0.24328 0.0698,-0.23897 z m -90.29299,0.38406 1.26154,0.71694 1.26163,0.71694 -1.26163,-0.71265 z m 90.09926,0.28168 -0.0698,0.23897 -0.0994,0.33288 -0.095,0.32857 -0.0698,0.24327 0.0698,-0.23898 0.0942,-0.32857 0.0994,-0.33288 z m 9.43476,0.95587 -0.25634,0.55045 -0.38799,0.47368 v 0.37977 l 0.0524,0.0215 0.16652,-0.0429 0.13079,-0.14509 0.16653,-0.46937 0.30603,-0.27308 z m -9.82232,0.37126 -0.0698,0.23899 -0.061,0.18778 0.0524,-0.18349 z m -0.20751,0.71694 -0.0524,0.18349 -0.0994,0.32857 -0.1168,0.40117 0.11241,-0.39687 0.0994,-0.32858 z m -188.1691056,0.29877 -0.130781,0.047 -0.06978,0.1408 -0.148218,0.27308 0.02618,0.19208 0.07841,0.11093 0.166534,-0.29018 z m 58.4381746,1.46369 -0.234528,0.13231 -1.027277,0.21338 1.027277,-0.21759 z m -3.667616,0.85346 -0.576328,0.12376 v -0.004 z m 115.195577,3.66135 h 0.008 l -0.39672,0.52486 -0.19791,0.26887 -0.36532,0.48216 -0.2703,0.36699 -0.32869,0.43526 -0.14388,0.38406 -0.22058,0.60166 -0.008,0.004 0.22059,-0.59745 0.13951,-0.38835 0.3287,-0.43528 0.27465,-0.36697 0.36009,-0.48218 0.20315,-0.26886 z m -13.11137,2.27873 -0.0174,0.10238 0.13517,0.17068 -0.0436,0.081 -0.008,0.004 0.0436,-0.081 -0.13078,-0.1707 0.0174,-0.10237 z m -0.0942,0.45236 -0.0524,0.27308 -0.0262,0.14509 -0.0262,0.35418 0.0784,0.27737 0.0994,0.106649 0.004,0.11948 -0.0524,0.23898 h -0.008 l 0.061,-0.23469 -0.008,-0.11948 -0.10378,-0.102369 -0.0784,-0.28168 0.0262,-0.35416 0.0262,-0.14509 0.0524,-0.2731 z m -3.41529,0.57606 0.0698,0.16218 -0.0698,0.1579 -0.11241,0.0938 -0.10378,0.0388 0.0698,0.200579 0.25198,0.28168 0.17613,0.0895 0.28424,-0.0512 0.0784,0.081 0.0174,0.0727 0.0524,0.0727 0.0784,0.0686 0.0262,-0.0769 0.004,-0.32428 -0.2886,-0.28167 -0.0898,0.13658 0.0174,0.0429 0.0872,0.0938 -0.20315,-0.0174 -0.10817,-0.0982 0.0436,-0.0895 -0.0262,-0.081 -0.0174,-0.379769 -0.0786,-0.1664 z m -149.695295,0.14938 0.07841,0.0727 0.374043,0.0257 0.666997,-0.0257 0.617304,0.22619 0.56325,0.473659 0.292955,0.31578 0.01741,0.15788 0.095,0.16218 0.166533,0.15789 0.153456,0.0298 -0.0041,0.004 -0.153455,-0.0297 -0.170893,-0.16218 -0.08979,-0.15789 -0.01741,-0.1579 -0.292956,-0.31577 -0.567595,-0.477959 -0.612945,-0.22188 -0.666997,0.0257 -0.374042,-0.0257 -0.07841,-0.0727 -0.07841,0.004 v -0.004 z m -0.34265,0.0595 0.08719,0.0512 -0.08979,-0.047 z m -0.08979,0.15787 v 0.004 l -0.224946,0.0553 z m -0.675716,0.0595 h 0.44641 l -0.0041,0.004 H 9.251868 l -0.3601,0.0727 0.0041,-0.004 0.355741,-0.0686 z m -2.0725796,0.0895 0.135168,0.0257 h 0.0082 l 0.103775,0.0853 0.301674,0.0553 0.5048236,0.0215 0.378401,-0.0553 -0.38712,0.0595 -0.5004636,-0.0215 -0.306034,-0.0553 -0.103775,-0.0896 -0.143859,-0.0215 z m 156.1518406,0.49925 h 0.004 l -0.11241,0.2219 -0.0698,0.10237 0.061,-0.0982 z m -149.798879,0.63156 0.108162,0.0138 0.07841,0.12376 h -0.0041 l -0.07841,-0.11948 -0.108162,-0.0138 z m 0.527498,0.0853 0.126394,0.0297 h 0.0041 l 0.01741,0.0727 -0.02618,-0.0727 -0.126394,-0.0257 z m 0.180489,0.1408 0.08719,0.0174 0.116798,0.094 0.166534,0.25178 0.130781,0.34987 -0.135168,-0.34987 -0.162174,-0.25178 -0.116798,-0.0895 z m 141.044442,0.72973 -0.0262,0.0686 -0.11255,0.11093 0.0436,0.0553 0.25634,0.11093 -0.0872,-0.28166 z m -130.145341,0.55047 0.04359,0.44376 0.108162,0.0644 0.306033,0.0215 0.495241,0.004 h -0.500478 l -0.306033,-0.0215 -0.103775,-0.0686 h -0.0041 l -0.04359,-0.43957 z m 129.902001,0.0727 0.1168,0.17919 -0.061,0.0644 -0.0898,0.0512 -0.008,0.12803 0.19792,0.0338 0.14386,0.16639 -0.0174,0.0297 -0.10377,0.0297 -0.20315,-0.11948 0.0698,0.24749 0.31563,0.0595 0.26592,-0.0174 0.28859,0.0644 0.24762,-0.008 0.0262,-0.14079 -0.41938,-0.22188 -0.0436,0.11092 -0.061,0.0512 -0.0698,0.0138 -0.11255,-0.1536 -0.0174,-0.29018 -0.095,-0.12804 -0.14388,-0.10665 z m -135.574627,0.0174 0.122008,0.0338 h 0.0041 l 0.234542,0.26028 0.517902,0.52057 h -0.0041 l -0.517902,-0.52057 -0.234542,-0.26028 -0.122008,-0.0298 z m -4.487548,0.0338 0.166533,0.0429 -0.166533,-0.0388 z m 0.170893,0.0429 0.09939,0.0895 0.01741,0.10665 0.05237,0.0727 0.07841,0.0429 -0.07841,-0.0388 -0.05237,-0.0727 -0.01741,-0.10665 z m 11.48493,0.37128 h 0.536216 l 0.531857,0.004 h -0.536198 z m 1.608471,0.008 h 0.540576 l 0.531857,0.004 h -0.540576 z m 1.613008,0.008 h 0.536217 l 0.536216,0.004 h -0.540557 z m 1.612995,0.008 h 0.536217 l 0.531857,0.004 H 32.00542 Z m 1.608568,0.008 h 0.536216 l 0.536203,0.004 h -0.536203 z m 1.612995,0.008 h 0.554531 v 0.004 z m -18.991248,0.0257 h 0.0041 l 0.180475,0.32857 0.02618,0.14509 -0.02618,0.081 0.0082,0.0595 0.121186,0.0512 0.112411,0.11093 0.095,0.15787 0.197913,0.14509 0.306034,0.12804 0.2206,0.18777 0.135168,0.24749 0.279,0.21337 0.061,0.0215 0.455129,0.18778 -0.463848,-0.18349 -0.061,-0.0215 -0.27464,-0.21338 -0.1395,-0.24749 -0.216241,-0.18778 -0.306034,-0.12803 -0.203149,-0.14509 -0.08979,-0.16218 -0.112412,-0.10665 -0.116798,-0.0553 h -0.0041 l -0.01741,-0.0595 0.03482,-0.0769 -0.03482,-0.14938 z m 6.424988,0.0727 0.216241,0.004 0.392344,0.0686 -0.396703,-0.0644 z m 35.707204,0.22617 0.603348,0.10665 0.56325,0.10665 -0.56325,-0.10237 z m -1.685117,0.30298 -0.878605,0.0297 -0.598989,0.0174 -0.766399,0.0429 -0.707096,0.0338 0.707096,-0.0388 0.766399,-0.0388 0.598989,-0.0215 z m -35.378222,0.0938 h 0.0041 l 0.153455,0.20909 0.135168,0.004 h -0.1395 z m 141.24272,0.1408 -0.0872,0.0727 -0.0524,0.25178 0.0262,0.1152 0.0784,-0.0644 0.0524,-0.0853 0.0436,-0.10237 z m -111.487512,0.72115 0.387121,0.008 0.752444,0.0727 0.598988,-0.0727 -0.598988,0.0768 -0.752444,-0.0768 -0.387121,-0.004 -0.153455,0.047 z m 99.051952,0.89612 0.004,0.004 -0.16654,0.41817 -0.29731,0.72544 -0.15781,0.38835 -0.20315,0.49927 h -0.004 l -0.061,0.0174 -0.004,-0.004 0.0698,-0.0138 0.20315,-0.49927 0.15782,-0.39258 0.29295,-0.72544 z m 4.34341,0.93882 0.004,0.004 -0.23018,0.0686 z m 0.19357,0.0644 0.24326,0.047 0.15345,0.004 h -0.14823 z m -6.19071,0.14509 0.004,0.004 -0.1892,0.0215 z m -0.18921,0.0257 -0.13516,0.11521 -0.0872,0.20909 -0.095,0.12803 -0.10378,0.0512 -0.22058,-0.0297 -0.33831,-0.0982 -0.35137,0.0174 -0.3601,0.14079 -0.0436,0.004 v -0.004 l 0.0436,-0.004 0.35574,-0.14079 0.35137,-0.0174 0.33831,0.0982 0.22058,0.0298 0.10378,-0.0512 0.0942,-0.12803 0.0872,-0.2091 z m 7.59655,0 0.19357,0.008 0.004,0.004 z m 7.10534,1.17351 -0.18049,0.17068 0.16218,0.1536 0.0524,0.0138 0.0348,-0.0595 0.0348,-0.11948 z m -98.853678,0.37126 -0.369683,0.0429 -0.441174,-0.0215 0.436815,0.0174 z m 98.903278,0.49076 -0.1264,0.0429 -0.11679,0.23047 0.17611,-0.0853 0.0994,-0.17919 z m -143.815405,0.50778 v 0.004 l -0.06978,0.0338 v -0.004 z m -5.825821,0.0595 -0.608585,0.17499 -0.504823,-0.0982 0.504823,0.0938 z m 69.886929,0.66574 -0.12119,0.29018 h -0.004 z m -22.190232,0.28167 -0.126395,0.34988 -0.238902,0.45657 h -0.0041 l 0.238902,-0.45657 z m 47.804799,1.25032 0.31562,0.1408 v 0.004 z m -0.93267,0.0215 0.13078,0.0644 -0.13078,-0.0595 z m 37.48691,0.12376 -0.31563,0.0595 -0.44117,0.0553 0.44117,-0.0595 z m -85.521539,0.11092 h 0.0041 l -0.0082,0.35847 z m 131.438449,0.16218 -0.27466,0.14938 -0.0698,0.0853 -0.0436,0.0938 -0.18919,0.19629 0.48215,0.31147 0.26158,0.23898 0.31997,0.0686 1.08133,-0.1152 0.37404,-0.24328 0.37404,-0.10238 0.0942,-0.1152 0.16218,-0.0853 -0.85621,-0.32428 -0.70711,0.008 -0.24324,0.10237 -0.16654,-0.0338 -0.32871,-0.2048 z m -135.191607,0.11521 -0.05237,0.0429 -0.247607,0.0512 0.247607,-0.0553 z m 106.972847,0.15789 -0.14822,0.41817 h -0.004 z m -75.221597,0.20909 0.33741,0.0388 -0.33741,-0.0338 z m -28.029567,0.29868 v 0.40107 l 0.01741,0.26029 -0.02618,-0.26029 z m -51.7923256,0.62726 -0.342663,0.0255 0.01741,0.0895 0.116798,0.2091 0.170893,0.0429 0.135168,-0.34987 z m 51.7381766,0.27737 0.01741,0.16639 0.07841,0.081 0.04359,0.11093 -0.03482,0.0853 h -0.0041 l 0.03482,-0.0853 -0.04359,-0.11093 -0.07841,-0.081 z m -50.314376,0.46087 -0.143873,0.0388 -0.216228,0.24319 0.148232,0.0553 0.02618,-0.0644 v -0.004 l 0.06978,-0.0471 0.108162,-0.0388 z m 50.26486,0.0853 h 0.0041 l -0.108161,0.1835 -0.16652,0.37546 -0.0082,0.29869 0.401062,0.62726 0.04359,0.0644 -0.05237,-0.0644 -0.396703,-0.62726 0.0041,-0.29869 0.166534,-0.37546 z m -51.5354796,0.004 -0.143859,0.20058 -0.01741,0.14508 0.06978,0.081 0.126394,0.0429 0.126395,-0.0895 -0.04359,-0.35418 z m 0.6530556,0.85346 -0.09939,0.0938 -0.06978,0.21338 0.03482,0.0338 0.108162,0.0215 v -0.11948 l 0.09939,-0.0512 0.05237,-0.0686 0.02618,-0.0769 -0.03482,-0.0298 z m -0.9732096,0.29017 -0.05237,0.0215 -0.103775,0.0686 -0.07841,0.10237 -0.05237,0.004 -0.108162,0.0471 0.0082,0.0512 0.09939,0.14509 0.211868,-0.0429 0.112411,-0.0686 0.05237,-0.0982 -0.04359,-0.22617 z m 0.392344,0.0174 -0.02618,0.0388 -0.04359,0.23897 0.03482,0.0257 -0.03482,0.081 0.157814,0.0138 0.02618,-0.081 -0.02618,-0.18777 -0.01741,-0.0338 z m 41.8077606,0.44378 0.598989,0.13231 0.856205,0.22618 -0.856205,-0.22189 z m 9.921451,0.0388 h 0.0041 l 0.05237,0.11521 z m -10.651317,0.0338 v 0.004 l -0.130781,0.004 z m -3.135937,0.17068 0.802138,0.0769 0.500464,-0.0338 -0.500464,0.0388 -0.802138,-0.0769 -0.130782,0.0388 v -0.004 z m 2.018526,0.0895 0.184835,0.0215 -0.184835,-0.0174 -0.347023,0.0257 z m 11.872311,0.13231 0.03482,0.34568 0.03482,0.23469 0.193567,0.32857 0.0082,0.13231 -0.130781,0.48647 -0.03482,0.0512 -0.03482,0.0174 0.02618,-0.0174 0.03482,-0.0512 0.130781,-0.48647 -0.0082,-0.13231 -0.193567,-0.32857 -0.03482,-0.23469 z m -11.552418,0.0644 h 0.061 l -0.061,0.004 z m -14.760463,0.52066 h 0.0041 l 0.05237,0.34566 -0.01741,0.11093 0.061,0.23048 0.06978,0.21767 -0.06978,-0.21338 -0.061,-0.23469 0.02618,-0.11092 z m -0.108162,0.008 -0.193553,0.0644 -0.09939,0.0215 v -0.004 l 0.09939,-0.0215 z m -0.500464,0.43527 0.153455,0.004 v 0.004 z m 0.770745,0.46937 -0.0041,0.081 -0.061,0.13659 0.05237,-0.13659 z m 26.006518,0.0512 0.130782,0.0297 -0.126395,-0.0257 -0.061,0.0338 z m -29.291195,0.0297 0.061,0.0644 h -0.0041 z m 0.130781,0.0686 h 0.0041 l 0.061,0.23046 h -0.0041 z m 21.518956,0.0553 0.03482,0.0257 -0.03482,-0.0215 z m -15.918438,0.0297 0.157815,0.0553 -0.157815,-0.0512 -0.315616,0.0138 z m -4.861591,0.30727 h 0.0041 l 0.170893,0.17069 h -0.0041 z m 85.147495,0.094 -0.28423,0.0512 -0.0942,0.0471 0.0942,-0.0512 z m 12.62477,0.21336 1.24359,0.85773 -1.24359,-0.85346 -0.12118,0.0727 -0.70275,0.36698 -0.14386,0.0895 0.14386,-0.0938 0.70275,-0.36276 z m -89.035795,0.55476 -0.230184,0.0644 -0.224946,0.0981 0.224946,-0.10237 z m -22.951737,0.0338 h 0.0041 l -0.061,0.20478 z m 70.819585,0.0255 0.58155,0.094 0.62602,0.0388 0.62167,-0.0686 0.15781,-0.0471 -0.15781,0.0512 -0.62167,0.0644 -0.62602,-0.0338 z m -50.742484,0.0644 0.180489,0.0768 v 0.004 z m 22.032581,0.16218 -0.0041,0.004 -0.189194,0.0338 z m -20.297949,0.14938 -0.116798,0.0553 v -0.004 z m -0.675716,0.23469 0.193553,0.0853 0.197927,0.008 -0.197927,-0.004 z m 92.793575,0.30727 0.0436,0.0338 0.0348,0.0138 -0.0348,-0.008 -0.0436,-0.0338 z m -3.94699,0.0512 -0.31561,0.12376 -0.32435,0.1792 0.32435,-0.18349 z m -5.71308,0.26459 1.91485,0.0853 -1.91485,-0.081 -0.27028,0.0644 z m -92.644914,0.0257 0.153455,0.0938 0.180489,-0.0174 0.176116,-0.0338 v 0.008 l -0.170893,0.0338 -0.180475,0.0174 -0.153455,-0.0938 z m 29.584068,0.10237 0.03482,0.37548 -0.103775,0.37126 -0.170892,0.29869 h -0.0041 l 0.17613,-0.29869 0.09939,-0.37556 z m -42.41163,0.31148 -0.09939,0.32428 -0.0041,0.004 z m 13.282609,0.27737 0.203149,0.10238 0.0041,0.008 -0.207509,-0.10665 z m 28.169233,0.54618 -0.108162,0.75532 v 0.23899 l -0.0041,-0.23468 z m 54.576804,0.45236 0.0994,0.0644 v 0.004 z m -82.836103,0.13659 0.441174,0.192 0.166533,0.22188 -0.166533,-0.21339 -0.441174,-0.18777 z m -6.722399,0.33288 -0.328693,0.36697 v -0.008 z m -0.459488,0.72544 v 0.008 l -0.061,0.10665 v -0.008 z m 6.379913,0.45235 0.09939,0.0982 0.20315,0.10665 0.130781,0.0512 0.112411,-0.0138 0.07841,0.0686 v 0.004 l -0.07841,-0.0686 -0.108161,0.0138 -0.0041,-0.004 -0.130781,-0.0429 -0.20315,-0.11093 v -0.004 l -0.09939,-0.0895 z m 14.945229,0.34996 -0.07841,0.0388 v -0.004 z m -0.07841,0.32008 v 0.004 l -0.143873,0.0686 -0.319975,0.25607 v -0.004 l 0.319975,-0.25178 z m -26.348989,1.02415 -0.631259,0.0388 -0.257203,0.1408 0.910176,0.27737 0.176116,0.18349 0.03482,-0.0727 0.06978,-0.28167 -0.03482,-0.13231 -0.08719,-0.0727 z m 10.881143,0.27308 0.04359,0.0338 -0.05237,-0.0298 z m -7.064952,0.65708 v 0.004 l -0.265922,0.22619 z m 57.712669,1.23324 0.2886,0.29868 0.27901,0.29868 -0.28423,-0.29868 z m 0.71234,0.70413 h 0.004 l 0.061,0.11521 0.004,0.004 0.12639,0.54195 0.061,0.13231 -0.0698,-0.13231 -0.12201,-0.54616 z m -24.790042,0.23048 0.103775,0.081 v 0.004 l -0.103775,-0.081 z m -26.840036,0.192 0.126395,0.0644 0.130781,0.0338 0.103775,-0.0174 0.0041,0.004 -0.108161,0.0174 -0.130782,-0.0297 -0.126394,-0.0686 z m 0.639978,0.39687 0.149082,0.0895 0.220601,0.081 0.193553,0.0138 0.162174,-0.0297 0.230183,0.0338 0.0041,0.004 0.243261,0.14509 v 0.004 l -0.243261,-0.14938 -0.230183,-0.0338 -0.166533,0.0297 -0.189194,-0.008 -0.220601,-0.081 -0.153442,-0.0938 z m 1.446297,1.07535 0.170879,0.1536 0.247621,0.0338 0.324348,0.18348 0.07841,-0.008 0.03482,-0.0215 0.04359,0.0338 v 0.004 l -0.04359,-0.0338 -0.03482,0.0215 -0.07841,0.008 -0.324348,-0.18349 -0.247621,-0.0338 z m 58.748993,0.47366 0.10817,0.008 0.0898,-0.004 -0.0898,0.008 z m -45.552009,1.412492 0.0041,0.18348 -0.02618,0.21768 0.01741,-0.22189 z m 100.263966,0.0768 -0.008,0.0938 v 0.13232 l 0.061,0.0727 h -0.008 l -0.0524,-0.0727 -0.008,-0.008 -0.004,-0.12804 0.0174,-0.081 z m 1.24803,0.42247 h 0.004 l 0.12201,0.18349 -0.004,0.20057 0.0262,0.1408 -0.0524,0.14938 -0.061,0.43526 0.0174,0.40116 -0.008,-0.008 -0.0174,-0.40115 0.061,-0.43528 0.061,-0.14509 -0.0348,-0.14509 0.004,-0.19629 z m -75.127007,1.89895 -0.229306,0.37126 0.170893,0.0215 0.25198,-0.0854 0.06978,-0.192 -0.148219,-0.0338 z m 58.821107,0.004 0.32435,0.1408 v 0.004 l -0.32435,-0.14078 -0.22059,0.0686 v -0.004 z m 16.76093,0.12803 0.008,0.008 0.15781,0.32857 -0.0174,-0.008 z m -4.69479,2.03978 0.13078,0.047 v 0.004 z m -66.913237,0.0138 -0.15781,0.0595 -0.0994,0.19198 -0.0436,0.24749 -0.12118,0.27308 -0.0698,0.0429 -0.22495,0.0471 -0.03482,0.0769 -0.04359,0.25178 0.03482,0.11092 0.07841,0.081 0.46821,0.13659 0.13517,-0.0174 0.15781,-0.22618 0.0784,-0.26887 0.40543,-0.63585 0.008,-0.21759 -0.10378,-0.14938 -0.3967,0.008 z m 62.177807,0.47797 -0.2389,0.15359 v -0.004 z m -40.397547,0.20462 -0.62601,0.0553 h -0.2389 l 0.2389,-0.004 z m 2.38351,0.008 0.10816,0.0174 0.16653,0.004 h -0.16653 z m 37.540947,0.28166 v 0.004 l -0.0524,0.0215 z m -42.961257,0.96869 0.14386,0.0174 v 0.004 z m 49.039317,0.11093 0.15346,0.0938 v 0.004 z m 0.33305,0.64865 0.34703,0.23046 -0.34703,-0.22617 z m 0.67137,0.92173 0.0524,0.0215 v 0.004 l -0.0436,-0.0174 z m -65.795817,0.72974 0.28859,0.12804 0.86493,0.004 0.51354,0.004 h -0.5179 l -0.86057,-0.004 -0.28859,-0.12804 z m -6.470067,1.40821 -0.06978,0.0553 -0.148219,0.21339 0.02618,0.11092 0.116798,0.0644 0.09939,-0.0727 0.07841,-0.1792 -0.0041,-0.0853 -0.03482,-0.0595 z m 10.322447,1.68131 0.004,0.33709 h -0.004 z m -12.241832,1.94163 -0.162174,0.0138 -0.270281,0.16639 -0.121185,0.16639 -0.01741,0.1494 0.06978,0.30727 0.061,0.14509 0.09418,0.0512 0.274654,-0.20487 0.234542,-0.34137 v -0.23048 z m 73.347209,35.10286 -0.16654,0.27737 -0.22494,0.38836 0.23018,-0.38836 z m 0.17089,0.24327 -0.0994,0.0298 z m -0.1264,3.26874 0.004,0.30727 0.0524,0.41817 0.1264,0.2219 -0.12119,-0.2219 -0.0524,-0.41817 z m 0.18048,0.94734 0.13078,0.14096 h 0.004 z" />
    <path
       id="rect1-5-6"
       style="fill:#008000;stroke-width:22.756;stroke-linecap:round;stroke-linejoin:round;paint-order:markers stroke fill"
       d="m 66.47022,115.56427 -0.01741,0.11093 0.06978,0.30727 0.061,0.14509 0.095,0.0512 0.27464,-0.20472 0.234543,-0.34138 v -0.0686 z m 7.461313,0 0.061,0.46086 0.0348,0.48647 -0.10816,0.81934 -0.42374,0.62304 -0.14385,0.14071 -0.1168,0.0338 -0.11255,-0.004 -0.1264,0.14946 -0.3287,0.0553 -0.17088,-0.26458 -0.13952,-0.0686 0.36969,0.90892 0.0872,0.0896 0.0872,0.22188 0.0872,0.13231 0.32433,0.63586 0.36533,0.23897 0.14823,-0.0215 0.0994,-0.0388 0.0524,-0.0769 0.0784,-0.0215 -0.17612,0.43957 0.0436,0.094 0.0898,0.0553 0.17611,-0.0138 0.13517,-0.0595 0.1395,0.13231 0.061,0.11948 -0.30604,0.10251 -0.13078,0.004 -0.10377,-0.0138 -0.74373,-0.9132 0.0436,0.19621 0.27465,0.42246 0.26592,0.55476 -0.0262,0.14946 0.0436,0.12803 0.20315,0.0174 0.36968,0.18357 0.0348,0.11092 -0.0348,0.081 -0.36968,-0.19621 -0.11241,0.0257 0.18919,0.20058 0.0784,0.14946 0.34702,0.38406 0.10816,0.18771 0.0436,0.17497 0.0872,0.20909 0.13952,0.13659 0.2389,-0.004 0.24325,0.0855 0.26157,0.13232 0.27028,0.17059 -0.0698,0.0727 -0.0872,0.0338 -0.63126,-0.32429 -0.10816,-0.0174 0.0994,0.14071 0.64869,0.64865 0.9011,0.75105 0.62603,0.74674 0.14385,0.33709 0.5493,0.46085 0.26156,0.28589 0.2206,0.46087 0.25633,0.25607 0.62166,0.60595 0.0784,0.1962 0.72107,0.66145 0.2886,0.37126 0.004,0.31149 0.0524,0.081 0.0524,0.14096 0.18921,0.31148 0.19355,0.24749 0.095,0.081 0.0436,0.0595 0.0524,0.0896 0.18919,0.45656 0.17613,0.36276 0.0784,0.40108 -0.0698,0.20058 -0.0698,0.26458 0.1168,0.28168 0.0436,0.0727 0.0698,0.14095 0.19792,0.24749 0.25198,0.25607 0.10817,0.0429 0.16217,0.01 0.43683,-0.11948 0.29295,-0.23038 0.18484,-0.0686 0.37404,-0.0471 0.17089,0.081 -0.15345,0.11948 -0.57632,0.26888 -0.62602,0.11506 -0.45513,0.10665 -0.20315,0.0257 -0.0524,0.0854 0.13516,0.17919 0.18048,0.46937 0.31563,0.66995 0.79255,1.03696 0.10378,0.78093 0.60336,1.55328 0.7568,1.67705 -0.0348,0.28168 v 0.24327 l 0.0262,0.1962 -0.0524,0.1792 -0.80651,0.9004 -0.0174,-0.0896 0.0784,-0.11506 0.0436,-0.0981 -0.12119,0.0644 -0.12639,0.19207 v 0.1621 l 0.19791,0.52065 0.20751,0.45236 0.10816,0.46087 0.0348,0.43527 0.20315,0.34996 0.1168,0.49075 0.43245,0.73824 0.1168,0.46937 0.24762,0.2603 0.22931,0.34995 0.0436,0.34996 0.25197,0.49498 0.0348,0.35417 -0.16652,1.24178 0.004,0.93027 -0.26593,0.89188 -0.23019,0.46514 -0.47779,0.66995 -0.67135,0.37128 -0.47345,0.35418 -0.22582,0.72544 -0.91008,1.17777 -0.1264,0.91321 -0.3287,0.81933 -0.25634,1.73256 -0.54493,1.77087 -0.15345,0.7721 -0.1264,0.35013 -0.18047,0.24773 -0.13078,0.14039 -0.26158,0.18744 0.0524,0.23865 0.0698,0.21388 0.061,1.51059 v 0.58464 l -0.10377,0.49051 -0.0994,1.10943 h 0.008 l -0.0524,0.63585 0.0262,0.83642 0.11255,0.74237 0.46385,0.79357 0.23454,0.59291 0.14386,0.20892 0.61294,0.62263 0.34265,0.52519 1.53646,3.28576 0.33305,0.46903 0.30604,1.01984 0.43682,1.1778 1.02727,1.68136 0.12639,0.40546 0.22583,0.48638 0.91915,1.28019 0.36968,0.78944 0.16654,0.7721 -0.0174,0.31132 -0.061,0.35426 -0.0994,-0.0412 -0.0524,-0.085 -0.095,0.26425 0.0524,0.33692 0.13079,0.62263 v 0.59786 l 0.061,0.50786 -0.0348,1.2503 0.0436,0.46491 0.33306,1.07111 0.36968,0.74237 0.18485,0.75971 -0.0524,0.66145 0.0174,0.35013 0.10816,0.5417 -0.0524,0.59786 0.22495,0.72998 0.0994,1.12239 0.33307,0.34105 0.11241,0.26013 0.0698,0.28984 -0.10817,0.20893 0.0262,0.37571 0.21622,0.65733 0.19357,0.88333 0.1395,0.35425 0.99571,1.83917 0.45513,0.60198 0.30603,0.25186 0.86055,0.97722 0.29732,0.26013 0.10377,-0.14038 h 0.004 l -0.10377,0.14038 0.0872,0.0744 0.68007,1.182 0.55453,1.27169 0.63038,2.25742 0.41414,1.12232 0.87417,1.88185 0.68531,1.1991 0.59463,0.90043 0.12118,0.28985 0.26593,1.25881 0.0524,0.48638 -0.0174,0.78531 -0.19356,0.4905 -0.33307,0.32041 -0.23454,0.085 -0.18483,-0.22213 -0.18485,0.14037 -0.1168,0.256 0.0698,0.44838 0.21187,0.28572 0.0872,0.35426 0.21623,0.18745 0.21623,0.50785 0.27901,0.21388 0.1264,0.31131 0.32434,0.68704 0.061,0.26921 0.0262,0.30719 -0.29295,0.17507 -0.061,0.45665 0.0524,0.38812 0.1491,0.36251 0.13516,0.17507 0.004,-0.60613 0.0994,-0.20066 0.0898,-0.0744 0.18484,-0.0247 0.27465,-0.0248 0.11254,0.0413 0.14822,0.0891 0.0436,0.2692 0.0174,0.22626 -0.0174,0.14038 0.0174,0.23452 0.184838,-0.0166 0.13079,-0.0578 0.3871,0.0248 0.13078,0.22625 0.251979,-0.0165 0.0898,0.086 0.13516,0.19241 -0.0174,0.26424 -0.061,0.14948 0.24326,-0.0331 0.64432,0.50787 0.56325,0.0165 0.20315,0.0578 0.24762,0.0412 1.0903,-0.94311 0.25198,-0.1536 0.64434,-0.0744 0.28423,-0.18331 0.28424,-0.0661 0.18483,-0.008 0.50048,0.14946 0.26156,0.004 0.53622,-0.11479 h 0.62166 l 1.20296,-1.02413 0.44639,-0.0495 0.3697,-0.14534 0.47779,0.004 0.50047,0.18332 0.9011,0.0661 0.21624,-0.0412 0.61729,-0.2816 0.29731,0.0248 1.2796,0.23864 1.08586,0.39225 0.61294,-0.0166 0.20315,-0.3716 0.2572,-0.28985 0.44119,-0.0412 0.8065,0.23452 0.25634,0.0248 0.17089,-0.0826 0.0348,-0.5508 0.40543,-0.37572 0.48651,-0.0826 1.15796,0.16682 0.48653,-0.17507 1.22099,-0.6185 0.75245,-0.53758 1.04985,-0.88334 0.26156,-0.14121 0.93267,-0.94732 0.61729,-0.47813 1.07236,-1.0967 0.71669,-0.96022 0.93275,-1.07961 0.667,-0.67384 0.25198,-0.14946 0.36968,-0.33278 0.83789,-1.15221 0.48217,-0.83213 0.50482,-0.91315 0.56324,-1.17779 0.38276,-0.5508 0.38712,-0.99853 0.43683,-0.68704 1.16694,-1.4124 0.29731,-0.0744 0.17089,-0.0891 0.1892,-0.14121 0.68007,-0.6953 0.23455,-0.39224 0.42375,-0.95163 0.31997,-1.87765 0.1264,-0.52519 0.3784,-1.1394 0.0994,-0.72998 0.008,-0.0661 0.1168,-1.81357 0.061,-0.52932 -0.0994,0.0166 -0.061,0.13217 -0.1168,0.43518 -0.1168,-0.0851 -0.0898,-0.1239 -0.17613,-0.14121 -0.14386,-0.20891 -0.15345,-0.27333 0.17089,-0.32041 0.18049,-0.25186 0.18047,-0.54583 0.44642,-0.47813 1.01828,-0.70851 0.48216,-0.22213 0.80214,-0.37161 2.03657,-0.75062 1.0093,-0.52024 0.43247,-0.33692 0.26156,-0.34104 0.48217,-0.79357 0.1395,-0.32453 0.13516,-0.74237 -0.0524,-0.11976 h -0.0994 l -0.061,0.20479 -0.16216,-0.0412 -0.0785,-0.11976 0.0174,-0.27747 0.31126,-1.60026 0.21623,-0.67384 -0.18484,-0.58464 -0.0436,-0.35013 0.1395,-0.85344 -0.004,-0.22213 -0.0262,-0.16681 -0.0698,-0.17507 -0.0262,-0.20066 -0.0994,-0.0247 -0.0994,0.18745 -0.0436,0.41784 0.0174,0.26425 -0.0698,0.15773 -0.17611,-0.1792 0.0262,-0.41371 0.004,-0.67383 -0.14821,-0.83643 -0.0174,-0.33279 -0.36969,-0.7721 -0.0262,-0.60611 -0.35574,-1.1693 -0.279,-0.40959 -0.29296,-0.32865 -0.15781,-0.26425 -0.0174,-0.20479 0.13517,-0.93874 -0.0174,-0.48226 0.0348,-0.32039 -0.11242,-0.16682 -0.17089,-0.19652 0.1892,0.0247 0.34702,0.33279 0.10377,0.004 0.1491,-0.0248 1.09937,-0.94303 0.75244,-0.97722 0.53622,-0.50373 0.33307,-0.23864 0.38276,-0.20893 0.14909,0.0891 0.1395,-0.033 0.0698,-0.42279 0.17089,0.21801 0.20315,-0.0661 0.0174,-0.22627 0.22495,-0.35012 0.11241,-0.16681 0.5676,-0.62346 0.3784,-0.5252 0.0524,-0.14533 0.061,-0.25186 0.1578,-0.17506 0.13078,-0.0744 0.51354,-0.49465 0.70275,-0.49546 0.86055,-0.51611 0.5493,-0.20892 0.10377,-0.13217 0.15346,-0.0941 0.62165,-0.21305 0.667,-0.26424 0.0942,-0.0825 0.11254,-0.0166 0.12119,0.033 0.33305,-0.0413 0.18485,-0.10651 0.34265,-0.0941 0.25722,-0.37986 0.1578,-0.14533 1.00922,-0.6185 0.36532,-0.32454 0.21187,-0.0941 -0.1395,-0.4137 0.18049,-0.1239 0.32434,-0.0744 0.30603,-0.46491 0.0262,-0.11976 v -0.13218 l 0.26158,-0.32453 0.279,-0.30304 0.64434,-0.84065 0.24326,-0.6185 0.004,-0.19654 -0.095,-0.22627 0.061,-0.0941 0.1395,-0.0495 -0.0174,-0.15359 0.0348,-0.23866 0.19793,-0.25186 0.15345,-0.14533 0.0262,-0.21304 -0.061,-0.24361 0.0174,-0.18745 -0.0436,-0.0982 0.0174,-0.20066 -0.11255,-0.13218 h -0.12639 l -0.21187,0.34105 -0.0262,-0.25599 0.008,-0.17507 0.19355,-0.28572 0.008,-0.22213 -0.17612,-0.0495 -0.12639,-0.0941 -0.0174,-0.12804 -0.0174,-0.80215 -0.0784,-0.64865 v -0.25392 l -0.0348,-0.20059 0.0994,-0.25176 -0.0784,-0.23469 0.0524,-0.20059 -0.0174,-0.31148 0.0262,-0.16647 -0.0174,-0.2091 -0.34701,-0.01 v -0.13659 l 0.0348,-0.0895 0.279,-0.22618 0.0524,-0.19208 0.0174,-0.35416 -0.0872,-0.31149 -0.16217,-0.10252 0.095,-0.28167 -0.0348,-0.23048 -0.0174,-0.55475 0.0784,-0.32857 -0.0524,-0.18358 -0.0436,-0.27737 -0.15781,-0.53767 0.0872,-0.59315 -0.16653,-0.33707 0.0524,-0.18771 0.18485,-0.24748 0.1395,-0.32428 -0.0436,-0.11506 -0.0524,-0.0768 0.0262,-0.19621 0.21187,-0.28166 -0.2886,-0.18771 0.18048,-0.14096 0.14909,-0.15359 -0.25198,-0.27308 -0.1395,-0.29448 -0.004,0.004 -0.0262,-0.0595 -0.0436,-0.094 -0.12639,-0.16649 -0.45513,-0.32428 -0.20315,-0.10665 -0.14387,-0.13218 -0.26157,0.01 -0.10377,-0.19206 -0.21623,-0.20058 -0.36532,-0.0686 0.15345,-0.24327 -0.0174,-0.2176 -0.12639,-0.32007 -0.0784,-0.41816 -0.18484,-0.48218 0.0436,-0.61875 -0.50482,-0.70836 0.0784,-0.10251 0.0262,-0.12362 -0.29295,-0.40107 -0.19356,-0.78524 0.008,-0.26457 0.0872,-0.30727 0.26592,-0.65287 -0.0348,-0.56326 -0.2572,-0.18769 -0.11242,0.11507 v -0.76384 l 0.1709,-0.49498 0.21187,-0.37977 0.22582,-0.23468 0.0698,-0.28167 -0.19356,-0.40967 -0.48652,-0.18769 -0.15345,-0.36699 -0.27465,-0.36696 -0.15345,-0.15798 -0.22582,-0.12376 -0.28424,-0.35418 -0.0436,-0.35847 -0.13517,-0.37977 0.0348,-0.54196 0.24325,-0.70834 0.17612,-0.30298 0.21187,-0.80654 0.0784,-0.18357 0.0784,-0.28166 0.0174,-0.23899 0.20752,-0.57605 0.0524,-0.23468 -0.004,-0.004 0.0174,-0.0769 0.15344,-0.15798 0.2389,0.0471 0.29732,-0.40967 0.38712,-0.91321 0.0524,-0.0981 0.0786,-0.1407 0.11679,-0.20909 0.0436,-0.10665 0.0436,-0.11948 0.1491,-0.35417 0.11255,-0.58887 0.095,-0.11506 0.10377,-0.26029 0.14822,-0.25607 0.32435,-0.28158 0.0348,-0.21347 0.17611,-0.43097 -0.0436,-0.56326 0.11241,-0.36697 0.14386,-0.17061 0.33307,-0.20058 0.63038,-0.0429 0.44641,-0.40967 0.0174,-0.15798 0.20751,-0.18356 0.0698,-0.21347 -0.0436,-0.15796 -0.0436,-0.32007 0.0698,0.0553 0.0942,0.0388 0.0524,-0.18357 0.0698,-0.11092 0.16217,0.0686 0.1264,0.0174 0.42374,-0.0981 0.31563,-0.21759 0.38276,-0.48226 0.26157,-0.32857 0.26592,-0.41388 0.29732,-0.63585 0.11255,-0.14508 0.0994,-0.26459 0.14387,-0.23468 0.33305,-0.32437 0.29732,-0.32857 0.47344,-0.64013 0.17612,-0.14948 0.24762,-0.37547 0.19792,-0.1962 0.20315,-0.20909 1.5634,-1.74534 H 74.695173 l 0.51791,0.25178 0.44118,-0.0769 0.15345,0.0727 -0.4961,0.19208 -0.0436,0.22617 -0.15344,-0.11092 -0.43247,-0.18349 -0.279,-0.0338 -0.14909,-0.11507 -0.0698,-0.12362 -0.0174,-0.0981 z m 56.649397,3.87898 0.004,0.004 -0.17613,0.0338 -0.18048,0.12375 -0.19792,0.0512 -0.20751,-0.0215 -0.0262,0.0138 -0.0872,0.0429 v -0.01 l 0.0872,-0.0429 0.0262,-0.0138 0.21187,0.0215 0.19356,-0.0512 0.18048,-0.11948 z m 8.15516,0.0595 h 0.19357 l 0.008,0.004 h -0.20315 z m -8.14618,1.53196 0.004,0.01 0.0436,0.36276 -0.061,0.43527 0.0524,-0.43956 z m -0.008,0.87053 0.0348,0.26888 -0.004,-0.004 z m 0.15346,0.51206 0.0262,0.25178 -0.061,0.34138 -0.0698,0.20471 -0.0784,0.0686 -0.095,0.0257 -0.12639,-0.0257 -0.15344,0.0297 -0.16654,0.0644 -0.10377,0.01 -0.0524,0.0727 -0.2389,0.52486 -0.0436,0.0769 0.0174,0.0429 -0.0262,-0.047 0.0524,-0.0768 0.2389,-0.52486 0.0524,-0.0727 0.10377,-0.01 0.16654,-0.0644 0.15344,-0.0298 0.12639,0.0257 0.095,-0.0257 0.0784,-0.0686 0.0698,-0.20471 0.061,-0.34137 z m 26.92564,0.0895 -0.28859,0.20472 -0.0524,0.15796 0.0994,-0.0215 0.32869,-0.1621 0.0436,-0.0429 0.008,-0.0429 -0.0262,-0.0471 z m -27.11041,2.60734 0.004,0.004 -0.008,0.14508 z m -0.0174,0.72544 v 0.004 l -0.28424,0.094 -0.14909,0.11093 -0.0436,0.0471 0.0436,-0.0553 0.14387,-0.10665 z m -0.41938,0.40116 v 0.004 l -0.14909,0.11093 z m 18.4145,0.35847 0.12639,0.0174 v 0.004 l -0.12639,-0.0138 z m -18.95969,0.11948 -0.061,0.1835 -0.061,0.21345 0.0524,-0.21345 z m -0.41416,0.73395 h 0.004 l -0.21623,0.39687 z m -0.84225,1.2802 -0.4682,0.31148 -0.13517,0.0981 -0.004,0.004 -0.82482,-0.0215 v -0.004 l 0.82917,0.0215 0.13517,-0.10251 z m 67.20612,1.06257 -0.19356,0.14071 0.0908,0.11507 0.16653,0.12803 0.0348,0.16648 0.1264,0.0895 -0.008,-0.26459 z m -68.84615,0.41388 v 0.17919 l 0.0524,0.23898 -0.004,-0.004 -0.0524,-0.23469 z m 27.76826,0.34566 -0.22495,0.10665 -0.279,-0.0512 0.0698,0.52487 -0.13951,0.71693 0.0698,0.10665 0.0906,0.0686 0.11255,0.0388 0.12118,-0.13659 0.1491,-0.39256 0.0174,-0.28168 -0.008,-0.42677 0.0436,-0.13231 z m -72.229857,0.081 h 0.004 v 0.0512 z m 44.749937,0.64013 0.11255,0.29018 0.0698,0.23899 0.0994,0.27737 0.13952,0.42677 0.0262,0.17497 -0.0348,-0.17497 -0.13517,-0.42677 -0.10377,-0.27737 -0.0698,-0.23899 z m 26.01558,1.56612 -0.11255,0.37126 -0.19355,0.21759 0.0348,0.43097 -0.061,0.24749 0.16218,0.29018 0.18485,0.0138 0.18047,0.24319 0.10816,-0.0429 0.061,0.20058 0.0898,0.0939 0.0698,-0.004 0.14386,-0.0686 0.0262,-0.11092 -0.20315,-0.60167 -0.0174,-0.0257 -0.14386,-0.14072 -0.17089,-0.46516 -0.0348,-0.39256 z m -67.300707,0.0215 -0.30168,0.0174 -0.73413,-0.004 -0.061,0.004 0.061,-0.01 0.72541,0.004 z m 0.004,0 0.55889,0.004 0.33307,0.0257 -0.33307,-0.0215 z m 5.16798,0.0512 0.87408,0.004 0.67136,0.004 0.004,0.004 -0.67572,-0.004 z m -0.79778,0.01 -0.88306,0.0138 -0.89665,0.01 0.89665,-0.0138 z m 37.027317,0.64007 0.0698,0.41396 0.0898,0.40108 0.13078,0.22617 0.31561,0.63155 h -0.004 l -0.31562,-0.63155 -0.13078,-0.22617 -0.0898,-0.40108 z m 1.6491,2.51772 0.1491,0.16648 0.13516,0.18357 0.26158,0.46945 -0.26593,-0.46945 -0.13517,-0.18357 z m -117.214106,2.11658 -0.03482,0.0644 -0.04359,0.10665 0.01741,0.0686 0.02618,0.0215 h 0.08979 l 0.126395,-0.0512 0.03482,-0.0595 -0.06978,-0.0644 -0.08719,-0.0769 z m 143.040396,0.094 -0.0436,0.0429 -0.1168,0.18769 -0.34265,0.28589 -0.14386,0.19206 -0.15346,0.10252 0.0872,0.11948 0.061,0.0338 0.1395,-0.0388 0.13516,-0.1835 0.16654,-0.0297 0.1892,-0.48647 z m -56.442127,0.60596 -0.39236,0.0895 -0.3784,0.0644 -0.38276,0.21759 -0.0994,0.0174 0.0994,-0.0215 0.38276,-0.21347 0.37404,-0.0686 z m 2.257317,0.004 v 0.004 l -0.522259,0.094 z m 29.80028,0.17499 0.18049,0.37977 0.0784,0.25178 -0.0784,-0.25178 z m -33.566947,0.094 0.004,0.004 -0.35572,0.01 -0.35573,0.0512 0.35573,-0.0553 z m 34.035597,1.08389 0.16217,0.25178 0.10378,0.11948 -0.10817,-0.11948 z m 1.63105,0.76814 0.23018,0.1706 0.0524,0.26029 0.14387,0.16208 -0.1491,-0.16208 -0.061,-0.26029 z m 1.23452,0.82353 0.008,0.2219 0.0524,0.094 h -0.004 l -0.0524,-0.094 -0.004,-0.004 z m 1.35614,0.61875 h 0.004 l 0.14387,0.15798 h -0.004 z m 2.36999,1.04125 0.23454,0.25178 h -0.004 z m -0.59899,0.2304 0.11241,0.004 0.12639,0.0644 -0.12639,-0.0595 -0.11241,-0.004 z m -0.2886,0.0553 0.11241,0.0338 0.0898,0.01 v 0.004 l -0.0898,-0.01 -0.11241,-0.0338 z m 3.4874,0.32858 0.008,0.004 0.0174,0.0686 0.39234,0.55046 0.12119,0.23048 0.004,0.004 v 0.11948 l 0.1168,0.47795 0.0262,0.22619 -0.0262,0.1706 0.008,0.14071 0.0436,0.19208 -0.0174,0.0854 0.13516,0.28589 0.0698,0.24328 0.0174,0.23469 -0.0436,0.23046 -0.12119,0.33288 -0.0174,0.13231 0.0262,0.12376 0.0784,0.13659 0.13078,0.14094 0.0994,0.17499 0.0698,0.2047 0.061,0.0896 h -0.008 l -0.0524,-0.0896 -0.004,-0.004 -0.0698,-0.20058 -0.0994,-0.17499 -0.13517,-0.14509 -0.0784,-0.13659 -0.0262,-0.12362 0.0174,-0.13217 0.1264,-0.33286 0.0436,-0.2304 -0.0174,-0.23468 -0.0698,-0.24327 -0.1395,-0.28589 0.0174,-0.0854 -0.0524,-0.19208 v -0.13659 l 0.0262,-0.17498 -0.0262,-0.22189 -0.1168,-0.48217 v -0.11948 l -0.13078,-0.23468 -0.39234,-0.55047 z m -27.37625,3.16633 h 0.004 l -0.061,0.14508 z m -1.39224,0.23468 -0.63998,0.27737 -0.21187,0.0338 0.21187,-0.0388 z m 1.94188,0.14946 0.13517,0.0138 -0.13517,-0.01 z m 36.22536,1.02415 -0.0784,0.17919 -0.0698,0.29018 -0.004,0.004 0.0698,-0.29446 z m -7.88942,0.17919 0.12201,0.20058 0.0348,0.23048 0.0174,0.0854 -0.0262,-0.0895 -0.0436,-0.23048 z m 22.26233,0.047 -0.11241,0.0174 -0.0436,0.0471 -0.0698,0.11506 -0.0784,0.91747 0.20315,0.26457 0.13517,0.0388 0.24326,0.16647 0.0524,-0.0388 0.0698,-0.11092 -0.11775,-0.31579 -0.17613,-0.39687 0.0348,-0.58886 z m 10.42158,0.58885 -0.0524,0.01 0.008,0.0512 0.0348,0.01 0.0174,-0.01 z m -56.49167,0.45658 0.18485,0.10251 0.26592,0.10251 -0.26592,-0.0981 z m 48.99425,0.98148 -0.10377,0.0644 -0.0174,0.0769 -0.0698,0.12804 -0.1168,0.0215 -0.10816,-0.0257 -0.19355,0.0215 0.41414,0.23039 0.21622,0.23898 0.12119,0.0644 0.0524,-0.094 0.004,-0.29869 -0.13517,-0.39687 z m 12.53017,0.0981 -0.45077,0.67846 -0.27466,0.34996 -0.0872,0.0553 -0.25198,-0.0512 -0.0436,0.0854 0.17613,0.40107 0.10816,0.32429 0.0698,0.33708 -0.0262,0.27737 -0.30169,0.95589 -0.45949,0.45236 -0.30603,0.12376 -0.26592,0.20058 -0.17613,0.28589 -0.21623,0.23038 -0.18048,-0.0388 -0.26593,-0.24327 -0.12119,-0.0727 -0.15345,0.0512 -0.10816,0.13659 -0.1168,0.1962 -0.0348,0.22188 0.0524,0.14948 0.24762,0.2948 -0.0348,0.0661 -0.0698,0.0578 -0.004,0.1792 -0.47779,0.87473 0.10378,0.50785 0.40108,0.37161 -0.24762,-0.0827 -0.25198,-0.0248 -0.15782,0.12803 -0.1168,0.1792 -0.20751,0.35012 -0.17613,0.37161 -0.12118,0.0495 -0.13078,-0.0412 0.035,-0.20479 0.0784,-0.1536 0.061,-0.15771 -0.0262,-0.15361 -0.061,-0.14946 -0.061,-0.033 -0.23453,0.18332 -0.0872,0.16185 -0.0994,0.346 -0.22059,0.2948 -0.27465,0.30718 v 0.13218 l 0.0436,0.14038 0.0698,0.17093 v 0.17093 l -0.0907,0.21388 -0.10378,0.0661 -0.0872,-0.0166 0.008,-0.0851 -0.10378,-0.52519 -0.13078,-0.0744 -0.16217,0.033 -0.54494,0.43931 -0.52314,0.38398 -0.2389,0.24773 -0.14386,0.3328 -0.008,0.15359 0.0348,0.13631 0.26592,0.23864 -0.10816,0.086 -0.1264,-0.0248 -0.0994,-0.0412 -0.32435,-0.46077 -0.0898,-0.0248 -0.40107,0.1239 -0.31563,0.0495 -0.48652,0.0413 -0.10377,0.0744 -0.0524,0.12803 -0.0436,0.18332 -0.0698,0.13632 -0.14823,-0.0248 -0.14386,0.004 -0.37841,0.14946 -0.10816,-0.0825 -0.0784,-0.13632 -0.1264,-0.0412 -0.14821,0.0941 -0.32435,0.32453 -0.23454,0.17093 -0.12119,0.0578 -0.9372,0.086 -0.20316,0.033 -0.0872,0.0744 -0.0436,0.13217 -0.0262,0.35839 0.0436,0.61438 -0.0348,0.23452 -1.16694,2.01844 -0.095,0.55905 0.13078,0.32039 0.0524,0.33279 -0.0174,0.37986 0.0898,1.04981 0.18047,0.63584 0.18485,0.34104 0.14386,0.36252 0.0348,0.36664 -0.0348,0.49959 0.0174,0.12804 0.39236,0.67879 0.16216,0.37572 0.008,0.36251 -0.0524,0.36665 -0.0698,0.73825 -0.061,0.3369 -0.0898,0.32867 -0.28423,0.69942 -0.32435,0.49548 -0.1395,0.33278 -0.40106,0.62347 -0.14824,0.63584 -0.14386,0.30719 -0.25198,0.22625 -0.31997,0.11065 -0.21188,0.1924 -0.17088,0.87483 -0.0698,0.14946 -0.10816,0.12804 -0.0698,0.15359 -0.0262,0.18333 -0.11241,0.24772 -0.061,0.35427 -0.0262,0.68704 0.0262,0.32865 0.1709,0.93454 0.0698,0.30306 0.10816,0.28984 0.45076,0.59291 0.1168,0.32866 0.061,0.36251 0.15782,0.35012 0.061,0.3328 -0.15345,0.30719 -0.0524,0.34104 0.0436,0.72998 -0.008,0.3972 0.0348,0.59291 0.0524,0.17505 0.42811,0.56319 0.15346,0.31131 0.0906,0.45253 0.12119,0.23864 0.0524,0.21388 0.0698,0.19654 0.11242,0.0899 0.46908,0.28985 0.23454,0.33692 0.16218,0.0858 0.17611,0.0578 0.58591,0.09 0.31127,0.11065 0.79256,0.65319 0.2389,0.086 0.79778,-0.0166 0.2572,-0.10652 0.22931,-0.18745 0.60336,-0.39225 0.62165,-0.33691 0.60422,-0.17919 h 0.62167 l 0.27901,-0.0661 0.54928,-0.31132 0.25722,-0.21387 0.37404,-0.59291 0.25198,-0.68704 0.10378,-0.37573 0.061,-0.38398 0.0994,-0.30719 0.14909,-0.28159 0.34265,-0.77211 0.0784,-0.36251 0.0436,-0.37573 0.35574,-1.2204 0.17089,-0.73825 0.14386,-0.7465 0.13079,-0.85352 0.0698,-0.21801 0.63562,-1.66426 0.46385,-1.48928 0.31126,-1.34849 0.36532,-1.32711 0.26593,-0.74649 0.23455,-0.75972 0.31561,-1.25881 0.37405,-1.22049 0.3784,-0.96863 0.24762,-0.73411 0.17089,-0.61439 0.30603,-1.2887 0.0436,-0.67382 -0.14822,-0.95163 0.0348,-0.31131 0.2389,-0.60613 0.14386,-0.29892 0.11255,-0.11065 0.27028,-0.12804 0.0698,-0.0982 -0.0784,-0.1668 -0.0174,-0.16185 0.20751,-0.29399 0.0698,-0.34104 -0.0174,-0.67383 -0.12119,-0.28159 -0.11254,-0.11066 -0.0784,-0.13217 -0.004,-0.43106 -0.0348,-0.34104 -0.0784,-0.33692 -0.0436,-0.37572 0.0348,-0.13217 0.21187,-0.20891 0.2886,-0.0248 0.10377,0.0495 0.0906,0.33692 0.24762,0.66558 0.19355,0.28572 0.2389,0.17505 0.061,0.004 0.1395,-0.17094 0.0786,-0.1239 0.29731,-0.66557 0.20751,-0.70852 -0.10816,-0.69116 -0.33743,-0.6185 -0.20751,-0.59291 -0.0784,-0.63172 -0.0784,-1.374 -0.26156,-1.33997 -0.27901,-0.8876 -0.0784,-0.56755 -0.15781,-0.28588 -0.18919,-0.27308 -0.44119,-0.69985 -0.1395,-0.29018 -0.12119,-0.29868 -0.15344,-0.23469 -0.30603,-0.32428 -0.0906,-0.13659 -0.0436,-0.18357 -0.13078,-0.12803 z m -14.68837,0.39686 v 0.11507 l 0.0784,0.1621 0.51356,0.0727 -0.18485,-0.17497 -0.22059,-0.14948 z m -27.03831,0.0896 0.31999,0.01 -0.31999,-0.004 z m -24.92517,0.75104 -0.061,0.30727 -0.0174,0.1621 0.008,-0.1621 z m 55.81132,0.34567 -0.13516,0.13659 0.13516,0.24328 -0.0174,0.14071 -0.0524,0.17498 0.0436,0.18348 0.0784,0.0768 0.16654,-0.0257 v -0.1621 l 0.0784,-0.20471 -0.0174,-0.0686 0.0524,-0.20907 -0.16654,-0.11093 -0.0698,-0.0138 z m -55.65814,0.58885 -0.008,0.081 h -0.004 z m 14.71993,0.90468 0.11254,0.0388 -0.11254,-0.0338 -0.19356,0.0553 -0.26157,0.1536 0.26157,-0.15797 z m 49.41328,0.11948 -0.10377,0.0215 -0.0436,0.14509 -0.16652,0.01 0.0524,0.36268 0.34701,0.047 -0.004,-0.10665 0.0262,-0.1536 z m -35.02677,1.0967 0.61731,0.73824 0.33742,0.46904 0.29732,0.41372 0.53185,0.76796 0.41414,0.59786 0.0524,0.55905 0.0698,0.0826 -0.13517,0.41371 -0.095,0.67383 0.0698,0.44345 -0.0262,0.75971 -0.0784,0.81504 -0.0942,0.28572 h -0.004 l 0.095,-0.28572 0.0784,-0.81504 0.0262,-0.75971 -0.0698,-0.44345 0.0906,-0.67383 0.1395,-0.41371 -0.0698,-0.0826 -0.0524,-0.55905 -0.41415,-0.59786 -0.53186,-0.76796 -0.29732,-0.41372 -0.33829,-0.46904 z m -4.92018,0.83208 v 0.004 l 0.14386,0.20479 h -0.004 l -0.1395,-0.20479 -0.1168,0.0495 z m -29.42634,1.29298 0.004,0.93033 v 0.93023 0.93453 0.93461 0.67383 l 0.15781,0.90043 -0.16217,-0.89613 v -0.67879 -0.93461 -0.93023 -0.93453 z m 31.58907,0.30307 -0.54058,0.0859 -0.17611,0.033 0.17089,-0.0413 z m -9.84482,1.40827 -0.0174,0.0578 0.004,0.16185 0.0698,0.34105 0.1395,0.30719 0.12201,0.17505 0.0784,0.45666 0.0436,0.3972 -0.0436,-0.3972 -0.0784,-0.45252 -0.1168,-0.17919 -0.14386,-0.30719 -0.0698,-0.33692 -0.004,-0.16681 z m 0.43683,1.89895 0.008,0.45666 0.0262,0.5161 0.0784,0.0495 0.50918,0.0166 0.8065,0.0413 -0.81086,-0.0413 -0.50482,-0.0166 -0.0784,-0.0495 v -0.004 l -0.0348,-0.51198 z m -95.127461,0.26425 -0.176129,0.14534 -0.01741,0.13631 0.238902,-0.0166 0.08719,-0.0744 -0.0082,-0.17094 z m 97.339801,0.85764 0.50046,0.37574 0.16654,0.0825 0.5179,0.10651 -0.5179,-0.10237 -0.1709,-0.0826 z m 10.85856,0.45667 -0.0906,0.0982 -0.0872,0.15773 -0.12639,0.37159 -0.15346,0.37986 0.1491,-0.37986 0.13078,-0.37159 0.0784,-0.15773 z m -17.38277,0.99431 -0.95072,0.37986 -0.62166,0.30719 -0.61293,0.37159 v -0.004 l 0.61293,-0.36664 0.62166,-0.31133 z m 11.02981,0.58877 h 0.004 l -0.0262,0.18333 z m -27.63303,0.1536 0.22931,0.2816 0.46385,0.48224 0.6173,0.62347 h -0.004 l -0.61731,-0.61852 -0.46385,-0.48638 z m 72.6218,0.033 -0.0994,0.0495 -0.34265,0.6441 -0.0872,0.4484 0.29731,-0.53758 z m -38.83861,0.12389 0.0262,0.84923 -0.0436,0.0661 h -0.008 l 0.0524,-0.0661 z m 19.64464,0.81916 -0.0348,0.0166 0.0436,0.0495 0.0262,0.008 0.0174,-0.004 0.008,-0.033 z m -25.77676,1.96296 0.004,0.93461 0.0174,0.33691 0.0436,0.218 0.0436,0.1239 -0.0524,-0.11976 -0.0348,-0.22214 -0.0262,-0.33691 z m -19.2706,0.0661 -0.22059,0.0744 -0.27464,-0.0166 0.27464,0.0166 z m 1.31561,0.26425 0.50918,0.0578 -0.50918,-0.0495 -0.3784,0.16681 z m 2.32037,0.14947 v 0.004 l -0.63561,0.23865 z m 15.24262,2.53471 -0.22059,0.12389 v -0.004 z m -0.279,0.23865 0.004,0.21306 0.0436,0.18331 -0.0436,-0.18331 z m 0.0942,0.41784 0.0784,0.0413 0.15782,0.10651 -0.15782,-0.10238 z m 0.25197,0.69117 -0.1395,0.43518 0.1395,0.50373 -0.14386,-0.50373 z m 65.40836,2.57749 -0.21623,0.0248 -0.15782,0.17093 -0.0784,0.26425 -0.18485,0.11976 -0.0784,0.13217 -0.061,0.32452 0.004,0.20892 -0.1264,0.0578 0.0262,0.0661 0.1491,0.16185 0.37404,0.033 0.32871,-0.0825 0.14386,-0.14946 0.0524,-0.20068 0.14822,-0.12389 0.0348,-0.34188 -0.14386,-0.34104 z m -5.81685,2.5902 -0.36532,0.11479 -0.16217,0.2948 -0.0436,0.16681 0.20751,0.47813 0.13517,0.17093 0.51354,0.26011 0.26156,0.033 0.36969,-0.0899 0.0698,-0.18332 0.0436,-0.41785 -0.26156,-0.35425 -0.20751,-0.346 -0.1709,-0.0826 z m -72.24784,5.69265 -0.23889,0.34105 -0.0174,0.1412 0.004,-0.1412 z m -0.56759,0.70852 h 0.004 l -0.1168,0.12389 z m -2.17625,1.81355 h 0.004 l -0.0436,0.1792 z m -2.82956,3.19625 h 0.004 l -0.0784,0.12389 z m -15.63001,0.008 0.004,0.004 v 1.29721 1.38259 1.38689 1.39118 1.3997 1.40388 1.40828 1.41671 0.45252 h -0.004 v -0.4484 -1.41677 -1.4082 -1.40398 -1.39961 -1.39547 -1.3869 -1.38258 z m 15.36871,0.89613 -0.10816,0.32865 -0.17613,0.48226 -0.1168,0.41866 -0.004,0.004 0.1168,-0.41783 0.004,-0.004 0.17089,-0.48226 z m -9.46634,4.15207 -0.33307,0.60199 -0.21186,0.17094 0.20751,-0.17507 z m -1.13546,1.00283 h 0.004 l -0.13517,0.30719 h -0.004 z m 26.81309,0.98572 -0.0524,0.61437 0.0348,0.41786 -0.0348,-0.41372 z m -39.604547,3.24744 h 0.004 l -0.15781,0.18332 -0.0872,0.28984 -0.0784,0.14534 -0.0436,0.24361 -0.0174,0.17093 -0.0872,0.18332 0.0786,-0.18332 0.0174,-0.17093 0.0436,-0.24361 0.0784,-0.14534 0.0898,-0.28984 z m 6.866587,1.64717 h 0.004 l -0.15345,0.27747 z m 25.18195,4.46364 -0.18049,0.15772 -0.14386,0.10237 -0.19355,0.1239 0.19355,-0.12803 0.14386,-0.10238 z m -0.95071,0.58465 v 0.004 l -0.2389,0.0827 z m -0.62602,0.0891 -0.16218,0.0495 -0.12118,0.0166 v -0.004 l 0.12639,-0.0166 z m -2.92861,0.58877 0.0524,0.0331 0.061,0.0495 0.15782,0.0827 v 0.004 l -0.15782,-0.0851 -0.061,-0.0412 -0.0524,-0.033 z m 0.31563,0.218 0.10816,0.0941 v 0.004 z m 0.41938,0.52934 0.23018,0.18331 0.39236,0.0825 0.30603,0.0578 0.0994,-0.033 v 0.004 l -0.0994,0.033 -0.30603,-0.0578 -0.39236,-0.0826 z" />
    <g
       id="g3"
       transform="matrix(0.14653138,0,0,0.15148116,52.314586,26.768071)"
       style="fill:#000000">
	<path
   class="st0"
   d="m 475.361,255.573 c -1.705,-2.996 -1.697,-6.572 0.032,-9.56 1.737,-2.988 4.964,-4.996 8.645,-5.403 l 18.029,-1.975 c 3.705,-0.406 6.948,-2.454 8.661,-5.466 1.721,-3.035 1.697,-6.629 -0.08,-9.616 0,0 -65.292,-114.919 -89.91,-152.397 C 391.921,27.28 371.293,22.611 313.65,22.611 h -57.643 -57.651 c -57.651,0 -78.262,4.669 -107.088,48.544 C 66.65,108.634 1.351,223.553 1.351,223.553 c -1.777,2.988 -1.8,6.582 -0.072,9.616 1.714,3.012 4.956,5.06 8.66,5.466 l 18.03,1.975 c 3.681,0.406 6.908,2.414 8.645,5.403 1.729,2.988 1.744,6.564 0.032,9.56 L 1.287,317.431 c -1.737,3.043 -1.697,6.668 0.104,9.688 1.809,3.011 5.139,4.995 8.884,5.306 l 37.558,3.107 c 3.186,0.271 6.119,1.777 8.031,4.119 1.92,2.35 2.637,5.33 2,8.198 l -10.812,48.074 c -0.702,3.075 0.175,6.27 2.39,8.668 2.215,2.414 5.505,3.76 8.964,3.68 l 50.838,-1.259 c 5.673,-0.136 10.589,3.586 11.465,8.693 l 6.605,38.585 c 0.502,2.932 2.358,5.513 5.114,7.106 2.741,1.586 6.119,2.008 9.218,1.172 l 50.616,-13.56 c 3.697,-0.996 7.72,-0.191 10.621,2.127 l 44.696,35.725 c 2.414,1.928 5.474,2.725 8.429,2.486 2.948,0.239 6.007,-0.557 8.421,-2.486 l 44.696,-35.725 c 2.9,-2.318 6.908,-3.123 10.621,-2.127 l 50.616,13.56 c 3.1,0.836 6.477,0.414 9.218,-1.172 2.757,-1.593 4.613,-4.174 5.115,-7.106 l 6.596,-38.585 c 0.893,-5.107 5.8,-8.828 11.474,-8.693 l 50.838,1.259 c 3.45,0.08 6.749,-1.266 8.956,-3.68 2.207,-2.398 3.098,-5.593 2.398,-8.668 l -10.812,-48.074 c -0.637,-2.868 0.08,-5.848 2,-8.198 1.904,-2.342 4.836,-3.848 8.031,-4.119 l 37.558,-3.107 c 3.744,-0.311 7.075,-2.295 8.884,-5.306 1.809,-3.02 1.84,-6.645 0.104,-9.688 z M 109.594,148.804 c 0,0 -32.634,-19.177 -18.022,-44.744 15.21,-26.626 48.075,-11.194 48.075,-11.194 z m 220.19,216.558 c -1.72,7.664 -8.588,19.169 -22.324,19.169 -8.812,0 -30.323,0 -44.624,0 0,0 -5.761,0 -13.736,0 -14.301,0 -35.82,0 -44.641,0 -13.727,0 -20.603,-11.505 -22.316,-19.169 -0.709,-3.163 -3.458,-11.082 -6.438,-19.312 19.607,1.131 45.278,-1.809 78.756,-12.597 29.152,9.386 52.409,12.859 70.885,12.859 3.88,0 7.489,-0.207 10.955,-0.486 -3.012,8.302 -5.808,16.349 -6.517,19.536 z m 45.581,-180.45 -12.876,25.129 c 0,0 3.578,45.995 6.446,75.402 2.478,25.415 -13.194,63.491 -102.522,29.216 2.254,-1.067 4.35,-2.422 5.99,-4.151 l 18.835,-19.974 c 4.709,-4.987 5.505,-11.696 2.056,-17.305 -0.342,-0.558 -0.749,-1.075 -1.155,-1.578 l -8.023,-25.543 c -0.406,-1.29 -1.777,-2.12 -3.227,-1.928 -1.434,0.192 -2.502,1.339 -2.502,2.693 v 17.44 c -1.115,-0.144 -2.254,-0.247 -3.401,-0.247 h -18.851 -18.858 c -1.785,0 -3.554,0.216 -5.243,0.574 v -17.768 c 0,-1.354 -1.052,-2.501 -2.494,-2.693 -1.442,-0.191 -2.82,0.638 -3.227,1.928 l -9.728,30.952 0.861,-0.334 c -1.402,4.741 -0.183,9.824 3.561,13.807 l 18.859,19.974 c 1.617,1.697 3.649,3.036 5.88,4.104 -89.465,34.354 -105.16,-3.745 -102.674,-29.168 2.868,-29.407 6.445,-75.402 6.445,-75.402 l -12.875,-25.129 c -11.592,-15.735 -13.624,-22.698 -7.736,-34.474 l 17.822,-36.394 c 7.106,-14.23 25.208,-21.679 42.338,-17.44 l 66.941,28.227 66.933,-28.227 c 17.13,-4.239 35.223,3.21 42.337,17.44 l 17.815,36.394 c 5.905,11.777 3.865,18.74 -7.727,34.475 z m 27.048,-36.108 -30.052,-55.938 c 0,0 32.865,-15.432 48.074,11.194 14.596,25.567 -18.022,44.744 -18.022,44.744 z"
   id="path1"
   style="fill:#000000" />

	<path
   class="st0"
   d="m 196.381,190.553 c -8.804,0 -15.959,6.645 -15.959,14.851 0,8.198 7.155,14.844 15.959,14.844 8.812,0 15.958,-6.645 15.958,-14.844 0,-8.206 -7.146,-14.851 -15.958,-14.851 z"
   id="path2"
   style="fill:#000000" />

	<path
   class="st0"
   d="m 315.618,190.553 c -8.812,0 -15.95,6.645 -15.95,14.851 0,8.198 7.139,14.844 15.95,14.844 8.812,0 15.959,-6.645 15.959,-14.844 0,-8.206 -7.147,-14.851 -15.959,-14.851 z"
   id="path3"
   style="fill:#000000" />

</g>
    <text
       xml:space="preserve"
       style="font-size:65.5854px;font-family:'DejaVu Sans Mono';-inkscape-font-specification:'DejaVu Sans Mono, Normal';fill:#000000;stroke-width:5.26129;stroke-linecap:round;stroke-linejoin:round;paint-order:markers stroke fill"
       x="85.226273"
       y="170.82593"
       id="text102"
       transform="scale(1.0093217,0.99076439)"><tspan
         id="tspan102"
         x="85.226273"
         y="170.82593"
         style="font-style:normal;font-variant:normal;font-weight:normal;font-stretch:normal;font-family:Chiller;-inkscape-font-specification:Chiller;stroke-width:5.26129">AT</tspan></text>
  </g>
</svg>
